<svg xmlns="http://www.w3.org/2000/svg" width="288.723" height="550.365" viewBox="0 0 288.723 550.365">
  <g id="Group_1319" data-name="Group 1319" transform="translate(-2345.378 1566.283)">
    <g id="Group_552" data-name="Group 552" transform="translate(2398.992 -1044.967)">
      <rect id="Rectangle_179" data-name="Rectangle 179" width="41.534" height="7.473" transform="matrix(0.864, 0.504, -0.504, 0.864, 4.534, 0.769)" fill="#f7594a"/>
      <path id="Path_129" data-name="Path 129" d="M2477.636-632.338l-36.845-21.5,4.333-7.426.485.284,36.361,21.214Zm-35.309-21.9,34.9,20.363,3.2-5.485-34.9-20.363Z" transform="translate(-2440.791 661.26)" fill="#1a171d"/>
    </g>
    <g id="Group_553" data-name="Group 553" transform="translate(2398.992 -1044.967)">
      <rect id="Rectangle_180" data-name="Rectangle 180" width="12.368" height="7.473" transform="matrix(0.864, 0.504, -0.504, 0.864, 4.534, 0.769)" fill="#1a171d"/>
      <path id="Path_130" data-name="Path 130" d="M2452.444-647.035l-11.653-6.8,4.333-7.426,11.653,6.8Zm-10.117-7.2,9.713,5.666,3.2-5.485-9.712-5.666Z" transform="translate(-2440.791 661.26)" fill="#1a171d"/>
    </g>
    <g id="Group_554" data-name="Group 554" transform="translate(2419.579 -1502.679)">
      <path id="Path_131" data-name="Path 131" d="M2701.388-1512.883l-22.441-20.657-42.94,168.847-173.932,289.776,18.47,10.776,173.735-289.438Z" transform="translate(-2499.31 1473.514)" fill="#1a171d"/>
    </g>
    <g id="Group_555" data-name="Group 555" transform="translate(2345.378 -1131.739)">
      <path id="Path_132" data-name="Path 132" d="M2398.333-700.068l-51.517-30.056,58.332-84.227,38.162,22.264Z" transform="translate(-2346.008 815.098)" fill="#f7594a"/>
      <path id="Path_133" data-name="Path 133" d="M2397.942-699.86l-52.564-30.667,58.975-85.154.448.262,38.613,22.527Zm-50.948-31.026,50.47,29.445,44.482-91.007-37.262-21.739Z" transform="translate(-2345.378 815.681)" fill="#1a171d"/>
    </g>
    <g id="Group_556" data-name="Group 556" transform="translate(2400.517 -1101.219)">
      <rect id="Rectangle_181" data-name="Rectangle 181" width="49.784" height="1.124" transform="matrix(0.444, -0.896, 0.896, 0.444, 0, 44.605)" fill="#1a171d"/>
    </g>
    <g id="Group_557" data-name="Group 557" transform="translate(2380.767 -1109.995)">
      <rect id="Rectangle_182" data-name="Rectangle 182" width="49.264" height="1.124" transform="matrix(0.51, -0.86, 0.86, 0.51, 0, 42.383)" fill="#1a171d"/>
    </g>
    <g id="Group_558" data-name="Group 558" transform="translate(2386.873 -1105.374)">
      <rect id="Rectangle_183" data-name="Rectangle 183" width="56.417" height="1.124" transform="matrix(0.491, -0.871, 0.871, 0.491, 0, 49.142)" fill="#1a171d"/>
    </g>
    <g id="Group_559" data-name="Group 559" transform="translate(2414.165 -1537.137)">
      <path id="Path_134" data-name="Path 134" d="M2687.452-1553.78l-18.469-10.776-45.028,174.98-154.793,265.321,18.47,10.776,154.6-264.983Z" transform="translate(-2468.393 1536.477)" fill="#1a171d"/>
      <path id="Path_135" data-name="Path 135" d="M2487.234-1113.371l-19.44-11.341.283-.485,154.759-265.262,45.424-175.823,19.469,11.359-.125.422-45.457,175.6-.035.059Zm-17.9-11.746,17.5,10.209,154.279-264.44L2686.4-1554.4l-17.469-10.193-45.058,174.579-.034.058Z" transform="translate(-2467.794 1537.137)" fill="#ffe3e2"/>
    </g>
    <g id="Group_560" data-name="Group 560" transform="translate(2409.472 -1156.062)">
      <rect id="Rectangle_184" data-name="Rectangle 184" width="32.001" height="32.001" transform="matrix(0.864, 0.504, -0.504, 0.864, 16.895, 0.769)" fill="#f7594a"/>
      <path id="Path_136" data-name="Path 136" d="M2488.055-813.661l-.485-.284-28.127-16.409.284-.485,16.409-28.126.485.284,28.127,16.409-.284.485Zm-27.075-17.1,26.671,15.559,15.56-26.671-26.671-15.559Z" transform="translate(-2459.443 858.966)" fill="#1a171d"/>
    </g>
    <g id="Group_561" data-name="Group 561" transform="translate(2409.472 -1133.014)">
      <rect id="Rectangle_185" data-name="Rectangle 185" width="32.001" height="5.318" transform="matrix(0.864, 0.504, -0.504, 0.864, 3.449, 0.768)" fill="#1a171d"/>
      <path id="Path_137" data-name="Path 137" d="M2488.055-795.694l-28.612-16.692,3.247-5.564,28.612,16.692Zm-27.074-17.1,26.67,15.559,2.113-3.623-26.67-15.559Z" transform="translate(-2459.443 817.95)" fill="#1a171d"/>
    </g>
    <g id="Group_562" data-name="Group 562" transform="translate(2409.473 -1138.659)">
      <path id="Path_138" data-name="Path 138" d="M2488.055-800.094l-28.612-16.692,6.54-11.208,28.612,16.692Zm-27.074-17.1,26.67,15.559,5.406-9.268-26.67-15.559Z" transform="translate(-2459.443 827.995)" fill="#1a171d"/>
    </g>
    <g id="Group_563" data-name="Group 563" transform="translate(2368.976 -1059.111)">
      <circle id="Ellipse_100" data-name="Ellipse 100" cx="4.295" cy="4.295" r="4.295" transform="translate(0.562 0.562)" fill="#1a171d"/>
      <path id="Path_139" data-name="Path 139" d="M2392.23-676.717a4.862,4.862,0,0,1-4.857-4.857,4.862,4.862,0,0,1,4.857-4.856,4.862,4.862,0,0,1,4.857,4.856A4.862,4.862,0,0,1,2392.23-676.717Zm0-8.589a3.736,3.736,0,0,0-3.733,3.732,3.737,3.737,0,0,0,3.733,3.733,3.737,3.737,0,0,0,3.733-3.733A3.736,3.736,0,0,0,2392.23-685.306Z" transform="translate(-2387.373 686.43)" fill="#1a171d"/>
    </g>
    <g id="Group_564" data-name="Group 564" transform="translate(2387.443 -1048.374)">
      <circle id="Ellipse_101" data-name="Ellipse 101" cx="4.295" cy="4.295" r="4.295" transform="translate(0.562 0.562)" fill="#1a171d"/>
      <path id="Path_140" data-name="Path 140" d="M2425.094-657.61a4.862,4.862,0,0,1-4.856-4.857,4.862,4.862,0,0,1,4.856-4.857,4.863,4.863,0,0,1,4.857,4.857A4.863,4.863,0,0,1,2425.094-657.61Zm0-8.589a3.736,3.736,0,0,0-3.732,3.733,3.736,3.736,0,0,0,3.732,3.733,3.737,3.737,0,0,0,3.733-3.733A3.738,3.738,0,0,0,2425.094-666.2Z" transform="translate(-2420.238 667.323)" fill="#1a171d"/>
    </g>
  </g>
</svg>
