<?xml version="1.0" encoding="utf-8"?>
<!-- Generator: Adobe Illustrator 24.2.0, SVG Export Plug-In . SVG Version: 6.00 Build 0)  -->
<svg version="1.1" id="Layer_1" xmlns="http://www.w3.org/2000/svg" xmlns:xlink="http://www.w3.org/1999/xlink" x="0px" y="0px"
	 viewBox="0 0 113.9 213.1" style="enable-background:new 0 0 113.9 213.1;" xml:space="preserve">
<style type="text/css">
	.st0{fill:#1A171D;stroke:#FFE3E2;stroke-width:2;stroke-miterlimit:10;}
	.st1{enable-background:new    ;}
	.st2{fill:#1A171D;}
	.st3{fill:#FFE3E2;}
	.st4{fill:#F7594A;}
	.st5{fill:#D64B3E;}
</style>
<g id="Group_575" transform="translate(-2326.815 -1355.896)">
	<rect id="Rectangle_190" x="2327.8" y="1379.9" class="st0" width="106.1" height="163.6"/>
	<rect id="Rectangle_191" x="2333.7" y="1379.9" class="st0" width="106.1" height="163.6"/>
	<g class="st1">
		<path class="st2" d="M2365.7,1361.9c0,1.8-1.4,2.7-3.5,2.7h-3.1v2.3h-2.2v-7.7h5.3C2364.3,1359.2,2365.7,1360.1,2365.7,1361.9z
			 M2363.4,1361.9c0-0.8-0.6-1-1.4-1h-2.9v2.1h2.9C2362.8,1363,2363.4,1362.7,2363.4,1361.9z"/>
		<path class="st2" d="M2367.1,1363c0-2.6,2-4.1,5-4.1c3,0,5,1.5,5,4.1s-2,4.1-5,4.1C2369,1367.1,2367.1,1365.7,2367.1,1363z
			 M2374.8,1363c0-1.5-1-2.3-2.7-2.3c-1.7,0-2.7,0.8-2.7,2.3s1,2.3,2.7,2.3C2373.8,1365.3,2374.8,1364.5,2374.8,1363z"/>
		<path class="st2" d="M2391.7,1359.2l-2.8,7.7h-2.2l-1.8-5.4l-1.8,5.4h-2.2l-2.8-7.7h2.3l1.7,5.3l1.8-5.3h2.1l1.8,5.3l1.7-5.3
			H2391.7z"/>
		<path class="st2" d="M2401.5,1365.2v1.7h-8.2v-7.7h8.1v1.7h-5.9v1.3h4.9v1.6h-4.9v1.4H2401.5z"/>
		<path class="st2" d="M2410.1,1366.9l-2-2.4h-2.3v2.4h-2.2v-7.7h5.4c2,0,3.5,0.9,3.5,2.6c0,1.3-0.8,2.1-2,2.5l2.3,2.6H2410.1z
			 M2408.8,1362.8c0.8,0,1.4-0.2,1.4-1s-0.6-1-1.4-1h-3v1.9H2408.8z"/>
	</g>
	<g class="st1">
		<path class="st2" d="M2356,1563.6c0,1.6-1.5,2.7-4.3,2.7c-2,0-3.6-0.5-4.9-1.5l1.2-1.4c0.9,0.8,2.2,1.2,3.7,1.2c1.3,0,2-0.2,2-0.7
			c0-0.5-0.6-0.7-2.2-0.8c-2.3-0.2-4.4-0.7-4.4-2.4c0-1.7,1.8-2.6,4.2-2.6c1.7,0,3.2,0.4,4.2,1.1l-1.1,1.4c-0.9-0.6-1.9-0.8-3.1-0.9
			c-0.9,0-2,0.1-2,0.7c0,0.5,0.9,0.6,2.3,0.7C2354.3,1561.4,2356,1561.9,2356,1563.6z"/>
		<path class="st2" d="M2365.7,1560.1h-3.2v5.9h-2.2v-5.9h-3.2v-1.8h8.6V1560.1z"/>
		<path class="st2" d="M2372.5,1564.6h-4.2l-0.7,1.5h-2.4l4-7.7h2.5l4,7.7h-2.4L2372.5,1564.6z M2371.7,1563l-1.3-2.7l-1.3,2.7
			H2371.7z"/>
		<path class="st2" d="M2386.2,1558.3v7.7h-2l-5-5.1v5.1h-2.2v-7.7h2.4l4.6,4.7v-4.7H2386.2z"/>
		<path class="st2" d="M2397.8,1562.2c0,2.4-1.9,3.8-4.8,3.8h-4.3v-7.7h4.3C2396,1558.3,2397.8,1559.8,2397.8,1562.2z
			 M2395.6,1562.2c0-1.4-1.1-2.1-2.7-2.1h-1.9v4.1h1.9C2394.5,1564.3,2395.6,1563.6,2395.6,1562.2z"/>
		<path class="st2" d="M2408.9,1563.9c0,1.3-1.2,2.1-3.1,2.1h-6v-7.7h5.5c1.9,0,3.1,0.8,3.1,2c0,0.9-0.6,1.6-1.8,1.7
			C2407.9,1562.1,2408.9,1562.7,2408.9,1563.9z M2402.1,1561.4h2.9c0.7,0,1.2-0.2,1.2-0.8c0-0.6-0.5-0.7-1.2-0.7h-2.9V1561.4z
			 M2406.6,1563.7c0-0.6-0.5-0.8-1.3-0.8h-3.3v1.6h3.3C2406.1,1564.5,2406.6,1564.3,2406.6,1563.7z"/>
		<path class="st2" d="M2411.9,1558.3l2.2,3.3l2.2-3.3h2.5l-3.6,5.1v2.6h-2.2v-2.6l-3.6-5.1H2411.9z"/>
	</g>
	<rect id="Rectangle_192" x="2362.5" y="1405.2" class="st3" width="47" height="113"/>
	<rect id="Rectangle_269" x="2364.5" y="1407.2" class="st2" width="43" height="109"/>
	<rect id="Rectangle_193" x="2366.5" y="1409.2" class="st4" width="39" height="105"/>
	<g id="Group_1318">
		<path id="Path_199" class="st4" d="M2371.5,1495.2h44l-10,19h-39L2371.5,1495.2z"/>
		<path id="Path_200" class="st5" d="M2366.5,1460.2h39l10,35h-43L2366.5,1460.2z"/>
		<path id="Path_201" class="st5" d="M2366.5,1460.2v54l6-19L2366.5,1460.2z"/>
	</g>
</g>
</svg>
