<svg id="Layer_1" data-name="Layer 1" xmlns="http://www.w3.org/2000/svg" xmlns:xlink="http://www.w3.org/1999/xlink" viewBox="0 0 760.75 1080"><defs><style>.cls-1,.cls-10,.cls-11,.cls-18,.cls-3{fill:none;}.cls-16,.cls-2{fill:#fff;}.cls-10,.cls-11,.cls-3{stroke:#212629;}.cls-10,.cls-11,.cls-18,.cls-3{stroke-miterlimit:10;}.cls-3{stroke-width:28.07px;}.cls-4{fill:#cececd;}.cls-5{fill:#aaabac;}.cls-6{fill:#f3c771;}.cls-7{fill:#f2ad56;}.cls-8{fill:#f48d7c;}.cls-9{fill:#b3e0de;}.cls-10{stroke-linecap:round;}.cls-10,.cls-11{stroke-width:14.04px;}.cls-12{clip-path:url(#clip-path);}.cls-13{fill:#0a79be;}.cls-14{fill:#23bbb8;}.cls-15{fill:#243b76;}.cls-16{opacity:0.2;}.cls-17{fill:#212629;}.cls-18{stroke:#88a495;stroke-width:5.26px;}</style><clipPath id="clip-path"><path class="cls-1" d="M515.61,256.69l-74.56-61.44L265.59,253.78,90.13,312.3,67.37,406.2a103.18,103.18,0,0,0,2.4,56.91L214.63,897.37a103.12,103.12,0,0,0,47.13,57.18,51.29,51.29,0,0,0,7.49,3.36h0c17.43,6.36,36.23,26,41.79,43.75l.09.3a18.88,18.88,0,0,0,24,12.27l331-110.41a19.23,19.23,0,0,0,12.05-24.66l-2.2-6.22c-5-14.06-2.39-35.78,5.75-48.27h0a95.89,95.89,0,0,0,11.7-23.82,103.13,103.13,0,0,0-.74-62.94L547.86,303.64A103.07,103.07,0,0,0,515.61,256.69Z"/></clipPath></defs><path class="cls-2" d="M326.36,1075a78.82,78.82,0,0,1-72-54.23,28.67,28.67,0,0,0-6.49-7,110,110,0,0,1-15.43-7.09,162.81,162.81,0,0,1-74.54-90.37L13,482a162.75,162.75,0,0,1-3.79-89.91l11.62-48a60.61,60.61,0,0,1-9.69-19.46c-.76-1.83-1.47-3.7-2.11-5.61a79.13,79.13,0,0,1,50-100l45.67-15.24a72.69,72.69,0,0,1-11.39-85.37A66.53,66.53,0,0,1,78.53,93.84,67.44,67.44,0,0,1,121.12,8.61,66.71,66.71,0,0,1,144.63,5.2a67.5,67.5,0,0,1,41.78,16.59q.89-.33,1.8-.63a74.59,74.59,0,0,1,66.23,9.51,114,114,0,0,1,35.91-19.74A115.22,115.22,0,0,1,331,5c3.43.12,6.88.4,10.33.82A116.13,116.13,0,0,1,441,98.2a79.42,79.42,0,0,1,68.9,53.8,78.11,78.11,0,0,1,4,25.83l39.69,32.7a162.84,162.84,0,0,1,51,74.19L749.43,719a162,162,0,0,1,1.19,99.45,151.82,151.82,0,0,1-17.21,36.46c0,.25-.07.51-.09.76l1.24,3.49a79.06,79.06,0,0,1-49.47,101.41L354.06,1071a78.52,78.52,0,0,1-27.7,4Z"/><path class="cls-2" d="M592.24,330.24,579.81,293A136.8,136.8,0,0,0,537,230.69L486.43,189a52.82,52.82,0,0,0-68.22-62.19l-1.24.42A89.82,89.82,0,0,0,254.44,68.38,48.74,48.74,0,0,0,179.79,55.5a41.15,41.15,0,1,0-45.85,57.22,46.94,46.94,0,0,0,38.24,85.2,39.81,39.81,0,0,0,9.91,7.64l-1.88.63L67.29,243.86A53,53,0,0,0,33.84,310.8a55.08,55.08,0,0,0,2,5.2,33.6,33.6,0,0,0,13.83,20L34.64,398.27a136.59,136.59,0,0,0,3.18,75.5l21.52,64.52L89,627.05l93.72,281a136.68,136.68,0,0,0,62.56,75.87,84.87,84.87,0,0,0,12.48,5.66c6.54,2.38,16,11.67,19.9,19.26l.08.14A19,19,0,0,1,279,1012a52.57,52.57,0,0,0,66.82,34.14l103.13-34.4,227.88-76A52.92,52.92,0,0,0,710,867.88l-2.19-6.16,0-.09a8.78,8.78,0,0,1-.21-.88,24,24,0,0,1-.33-2.57s0-.06,0-.1c-.26-5,.92-12.16,2.8-15.05,7.32-11.27,12.45-21.83,15.66-32.28a136.09,136.09,0,0,0-1-83.5Z"/><rect class="cls-3" x="55.3" y="216.3" width="408.4" height="38.47" rx="2.12" transform="matrix(0.95, -0.32, 0.32, 0.95, -61.19, 94.21)"/><path class="cls-3" d="M515.61,256.69l-74.56-61.44L265.59,253.78,90.13,312.3,67.37,406.2a103.18,103.18,0,0,0,2.4,56.91L214.63,897.37a103.12,103.12,0,0,0,47.13,57.18,51.29,51.29,0,0,0,7.49,3.36h0c17.43,6.36,36.23,26,41.79,43.75l.09.3a18.88,18.88,0,0,0,24,12.27l331-110.41a19.23,19.23,0,0,0,12.05-24.66l-2.2-6.22c-5-14.06-2.39-35.78,5.75-48.27h0a95.89,95.89,0,0,0,11.7-23.82,103.13,103.13,0,0,0-.74-62.94L547.86,303.64A103.07,103.07,0,0,0,515.61,256.69Z"/><path class="cls-3" d="M334,65.2h0a56.48,56.48,0,0,1,49.14,63l-5.81,47.2L258.6,215.55l12.46-101.2A56.49,56.49,0,0,1,334,65.2Z"/><rect class="cls-4" x="55.3" y="216.3" width="408.4" height="38.47" rx="2.12" transform="matrix(0.95, -0.32, 0.32, 0.95, -61.19, 94.21)"/><path class="cls-5" d="M334,65.2h0a56.48,56.48,0,0,1,49.14,63l-5.81,47.2L258.6,215.55l12.46-101.2A56.49,56.49,0,0,1,334,65.2ZM304,92.47l-6.53,52.95L350,151.9l6.52-53A2.91,2.91,0,0,0,354,95.69l-46.77-5.76A2.91,2.91,0,0,0,304,92.47Z"/><path class="cls-6" d="M515.61,256.69l-74.56-61.44L265.59,253.78,90.13,312.3,67.37,406.2a103.18,103.18,0,0,0,2.4,56.91L214.63,897.37a103.12,103.12,0,0,0,47.13,57.18,51.29,51.29,0,0,0,7.49,3.36h0c17.43,6.36,36.23,26,41.79,43.75l.09.3a18.88,18.88,0,0,0,24,12.27l331-110.41a19.23,19.23,0,0,0,12.05-24.66l-2.2-6.22c-5-14.06-2.39-35.78,5.75-48.27h0a95.89,95.89,0,0,0,11.7-23.82,103.13,103.13,0,0,0-.74-62.94L547.86,303.64A103.07,103.07,0,0,0,515.61,256.69Z"/><path class="cls-7" d="M515.61,256.69l-74.56-61.44L265.59,253.78,90.13,312.3,67.37,406.2a103.18,103.18,0,0,0,2.4,56.91L214.63,897.37a103.12,103.12,0,0,0,47.13,57.18,51.29,51.29,0,0,0,7.49,3.36h0c17.43,6.36,36.23,26,41.79,43.75l.09.3a18.88,18.88,0,0,0,24,12.27l331-110.41a19.23,19.23,0,0,0,12.05-24.66l-2.2-6.22c-5-14.06-2.39-35.78,5.75-48.27h0a95.89,95.89,0,0,0,11.7-23.82,103.13,103.13,0,0,0-.74-62.94L547.86,303.64A103.07,103.07,0,0,0,515.61,256.69Z"/><path class="cls-4" d="M673.66,861.22A46,46,0,0,0,676,872.94l2.2,6.22a19.23,19.23,0,0,1-12.05,24.66l-331,110.41a18.88,18.88,0,0,1-24-12.27l-.09-.3a61.73,61.73,0,0,0-8.85-17h0l371.47-123.9Z"/><path class="cls-8" d="M620.05,522.26l-4.19,16.91,13,10.91,8,12.72-8.72,18.64,13.34,10.81,9.87,12-8.68,18.63,15.91,9.89,8.21,12.64-5.25,14.19L651,657.5l-14.08.87-12.92-9L609.86,651l-14.55,2.33,3.86,16-9.07,12L592,696.47,581.15,708l-3.36,13.64L570.14,734l3.05,16.92-16.54,6.22-9.58,12.27-16.94.2-10.07-6.75,5.62-15-8-13.22-4.09-11.81-7-12.67-9.34-12L490.88,684l-4-16-8.79-12.42L458,651.59l1.81-20.35-14.62-8.59-14,9.29,1.28,17-.53,16-19.29,6-.84,15.87-4.19,17.74-17.9-8.41-14.79,1-14.8,6.27-11.9-11.06L339.47,686l-10.29-9.11-17.24-3-1.09-17.27-14.11-5.75-2.38-16.12L284,625.68l-9.44-15.77L259.72,622.5l-14.44,1.74-10.73,11.51-16.34-3.25-12.52,6.81-11.46,9.62L180.39,653l-12.27-7.11-15.58-1.13-3.92-20.4-13.23-5L115,621.2l-2.36-16.13,6.49-16.25-13.22-9.68,2.91-15.06-3-13.09-16.46-8.6-2.28-14,5.5-14.9-7-14,.36-16.19,15.42-4.82,4.82-13.8,10.55-8.78,18,5.8L146,450.13,159.65,452,175,447.37l9.32,10.44,10.1,9,15.16-.7,11.45,11,13,8.26,16.09,1.44L261.3,499l14.78,4.36,13,14.23,12.95-14,13.79-3.2,15.78,2.76,9.65-15.64,14.22-4.17,15.72.35,14.94-2L397.46,469l15.09-1.54,16.35,2.21,11.29-13.3,14.37-3,15.93,3.21,15.17.38,12.2-10.57,13.57-5.56,18.16-3.45-18.27-1.17-15.09,3.43-12.88-8.12-15.09,3.4-13.75-3.55-14-2.37-13.95-2.55-13.38-5.53-11.66-14.49-14.85,7L377,422.08l-17.09-3.53-7.74,14.6L340.92,441l-18.48-6.24-9.79,10.65-10.15,14-12.65-14.9-10.56-10.91-6.44-14.25-12.79-9.31-2.44-16.7-3.89-14.94-9.82-11.22-14.85-14,10-16.63,17.53-4.09,18.25,1.4,16.94-6.23,7.8-14.82,10.86-10.57,11.21-10.13,15.08-5.59L348.86,276l14.89,8.84,4.79,17.86,9.95,12.64,14.87-.81,1.45-5.53,7.88-11.76-3.84-13.94,3.26-12.62,2.53-14.42,14.6,10.18,14.26-12.26,13.65-1,12.92,12.4,10-2.43-5.19,11-6.89,14-12.52,9.57,16.47,2.62,13.92,8.05,11.82,12.68,13.93,9,14.48,4.77,15.23.84,14.63,2.85,10.48,7.14,15.24,7.81-8,17.7,12.46,11.53-6.22,17.18,4.82,13.83,4.75,13.86,7,13.18,3.86,14.13,6,13.47,1.34,14.9,2.25,14.61,3.64,15.65Z"/><circle class="cls-9" cx="201.14" cy="170.72" r="6.15"/><circle class="cls-9" cx="142.44" cy="72.52" r="7.57"/><circle class="cls-9" cx="211.91" cy="92.27" r="15.15"/><circle class="cls-9" cx="157.43" cy="153.36" r="13.26"/><line class="cls-10" x1="301.28" y1="367.82" x2="347.43" y2="352.43"/><line class="cls-10" x1="562.13" y1="817.17" x2="657.56" y2="785.34"/><path class="cls-11" d="M334,65.2h0a56.48,56.48,0,0,1,49.14,63l-5.81,47.2L258.6,215.55l12.46-101.2A56.49,56.49,0,0,1,334,65.2ZM304,92.47l-6.53,52.95L350,151.9l6.52-53A2.91,2.91,0,0,0,354,95.69l-46.77-5.76A2.91,2.91,0,0,0,304,92.47Z"/><g class="cls-12"><path class="cls-13" d="M636.19,723.36l.14-2c-3.4-.23-4.27,1.59-4.5,2.38-.53,1.85.78,3.82,2.36,4.65l2.36,1.48.51-2.7a5.94,5.94,0,0,1,.43-.53,3.73,3.73,0,0,0,1.19-3.09,2.78,2.78,0,0,0-1.55-2Z"/><path class="cls-13" d="M622.41,694.06l.32-2.58a6.18,6.18,0,0,1,.71-1.1c.78-1,1.73-2.34,1.29-3.89a3.13,3.13,0,0,0-2-2l-.81-.13c-4.34.17-5.31,2.24-5.51,3.46-.37,2.28,1.55,4.47,3.62,5.27Z"/><path class="cls-13" d="M648.61,711.39a1.55,1.55,0,0,1,.25,1.05,5,5,0,0,0-.61-.31l-.39.52-1.71-2.54c-1,.55-1.66,1-2.28,1.39a24.25,24.25,0,0,1-3.23,1.82l-5.9,2.78,4.88.79a3.83,3.83,0,0,1-1.91,1.15l.56,4a7.64,7.64,0,0,0,2.28-.41,13.74,13.74,0,0,0,2.51-1.2l-.45-.79a0,0,0,0,1,0,0l.49.78c.31-.19,1.79-1.15,2.11-1.32a3.26,3.26,0,0,0,2.12-1.13,2.37,2.37,0,0,0,.51-1.25,3.08,3.08,0,0,0,1.76-1.08l.55-.89-.24-.92a2.21,2.21,0,0,0-.69-1.06A3.14,3.14,0,0,0,648.61,711.39Z"/><path class="cls-13" d="M696.86,635.31c-1.67-5.65-5.12-10.57-10.18-12.65L684.61,620a4.71,4.71,0,0,1-.42-.82c-.45-1-1.19-2.63-3.11-2.85H681l1.08-3.21a4.66,4.66,0,0,0-3.86-.56h0l-.3.11-.65-.84-.13-.8-.51-1-.37-.42-2.52-1.55-.66,1.29a4.32,4.32,0,0,0-2.16.18l-.31.12-.71.55-.83.74.07,1,.35,1-.57,1,.48,1.11,1.23,1.5,1.68.08.36-.12a2.51,2.51,0,0,0,1.11-.81h.06a2.12,2.12,0,0,0-.22,1.58,3.7,3.7,0,0,0,0,1.56,1.59,1.59,0,0,1,.26-1v0l.58-.13L676,621c.63-.21,1.09-.39,1.51-.57s.71-.28,1.09-.4a3.78,3.78,0,0,0,.37.72l-.08,0,.18.23a4.35,4.35,0,0,0,.34.41l2.89,3.6a6.91,6.91,0,0,1,.73,3.37c.17,2.24.39,5.19,2.76,7.29a5.14,5.14,0,0,0,0,1.11l-.68.15-.32,1.19a8,8,0,0,0,.32,5l-.44.67a3.8,3.8,0,0,0-1-.78l0-.44a5.57,5.57,0,0,0-.55-1.77c-.05-.1-.11-.23-.16-.36l.24-.26a3.15,3.15,0,0,0,1.14-2.75,2.63,2.63,0,0,0-1.55-1.93l-.86-.22c-3.7-.08-4.7,1.77-5,2.86a4.39,4.39,0,0,0,.58,3.1l-.59-.15,3.41,4.58c.63.85.6,1,.38,1.67a5.71,5.71,0,0,0,.53,5.12l.92,2.26,1.3-1.08.27.22,1.1-.37c-.07.16-.14.32-.21.51a3.82,3.82,0,0,0-.13,1.22l-1,.45-.38.7a1.65,1.65,0,0,0,.25,2.12c-.5,1-1,2.07-1.42,3.21l-.61,2.34s-.17,1-.19,1.14l-.18.26c-2.72-.62-3.48-.36-3.82-.25l-1.38.55s-.14,1.43-.14,1.49h-.17a6.1,6.1,0,0,0-2,.27,2.87,2.87,0,0,0-.86.4,3.35,3.35,0,0,0-.89.47l-2.86-4-.49,5.24a4.53,4.53,0,0,0-.4.56l-.68.24-.27-.21a4.17,4.17,0,0,1,.25-2.07l.47-1.83-.87-.86-1.37-.69-.48.16-.26-.4-.16-2.65-2.53.85a3.15,3.15,0,0,0-1.47,1.08l-.67,1.41.07.17c-.08.17-.25.67-.25.67a7.1,7.1,0,0,1-1.82,1.14l-1.23.44-.25,1.09,0,.17-.26.12-.19.68-.05,0-.18.3c.35-.64,1.13-2.2.06-3.48l-2-.88-1.31.43a15.09,15.09,0,0,0-1.38.79,12.57,12.57,0,0,0-1.13.82,3.64,3.64,0,0,0-1.65,2.37v.88l-.15.85-.38,1.09.26.12a8,8,0,0,0-1,.21c-3.53,1.18-4.21,4.94-4.56,7.2a12.09,12.09,0,0,0,.9,4l-.13.47-2.29.71a3.19,3.19,0,0,0,.38-1.83v-1.61l-.42-.27a1,1,0,0,0,0-.14l-.49-2.16-1.82.61a5.22,5.22,0,0,0-1.1-.88l-1.63-1-1.1,1.57s-.54.77-.82,1.13l-2.33,1.54,2.1,1.35a.43.43,0,0,1,0,.05L634,686l1.83-.45a.83.83,0,0,0,.12.16,5.28,5.28,0,0,0-.84,2.05l-.62,2.34.08.31.45.74a6.16,6.16,0,0,1-.91.47c-.76.34-1.62.73-1.55.95-8.22,3.41-19.72,12.69-24.94,17.73-1.12.55-1.65,1.75-2.27,3.15a9.43,9.43,0,0,1-1.64,2.86l-3,2.78,4,.69a5,5,0,0,0,2.46-.13,2.43,2.43,0,0,0,1.64-1.53c.47.08.54.14,1.1.59a15.51,15.51,0,0,0,1.75,1.26l2.16,1,.64-1.53.69-.2a2.54,2.54,0,0,0,1.59-1.73c.67-.25,1.61-.59,2.62-.93,2.6-.86,3.79-1.09,4.12-1.2.08,0,.11-.05.1-.06l.73.4a7.74,7.74,0,0,0-1.25,5.51l.64,3.29,2.66-2.1a4.88,4.88,0,0,1,1.24-.37c1.22-.27,4.55-1,3.9-4.63l-.08-.44-.12-.18.65-.13a3.34,3.34,0,0,0,1.73-1.72,15,15,0,0,1,1.89-2.58l-.21-.22,4.7.22-.21-2.84,2.9-1.18s-.72-1.93-.73-2a6.92,6.92,0,0,0,2.43-.25,3.55,3.55,0,0,0,2-1.56,5.91,5.91,0,0,0,3.07,0l1.19-.61,1.27-1.5a4.62,4.62,0,0,1,3.41.8l3.2,1.9,0-1.57.31.16,1.86-.63.31-1,0-.79.82.08.47-.16s.08-.08.13-.1l.34,1.33.93-.13,1.18,0,.57.47,1.31-.44a4.79,4.79,0,0,0,1.54-.94c.28-.24.55-.52,1-1a9.27,9.27,0,0,0,1.18-1.38l1.06-2-.87-1.15a2.51,2.51,0,0,0-2.53-.88,7.52,7.52,0,0,0,.91-1.18l-.05-1.3,1-.28a5,5,0,0,0,2.41-1.56,42.74,42.74,0,0,0,6.27-2.92,48.74,48.74,0,0,1,6.57-3.1L687,683.3a7.18,7.18,0,0,0,1.85-2,3.25,3.25,0,0,1,1.23-1.27l-.51-2.78a3.79,3.79,0,0,1,.35-.95,4.81,4.81,0,0,0,2.08-.05l.59-.14.41-.43c.93-1,2.2-2.32,1.6-3.9a2.2,2.2,0,0,0-.24-.46,18.24,18.24,0,0,0,2.53-3l1.35-1.09-.18-1.57,1.33.59-.23-3.34a50,50,0,0,1,.43-8.64c.48-4.51,1-9.17-.46-13.79l-2-6.3Zm-15.36,4.75,1.27.57v0l-1.24-.57Zm-16.21,56.73c0-.09,0-.2,0-.29l.07,0,.78-.26-.26.38ZM651.35,674.5,652.7,673l.51-.32.24-.56.48-.74,1.33-.7-.44.74a5.74,5.74,0,0,0-.74,1.76l-.68-.22-2.11,3.32.25.25a3.31,3.31,0,0,0-.07.47l-1.23.58.29,1.08a8.5,8.5,0,0,1-1.72.08l-.48-1.08a5.43,5.43,0,0,1,1.37-1.08l-1.06-3.35Z"/><path class="cls-13" d="M626.11,738.16c-.34-.77-1.18-1.68-3.24-1.59l-.55-.07-.53.45-12.24,8.26-1,0c-3.46.12-5.73.21-8,1a15.69,15.69,0,0,0-5.45,3.32,11.85,11.85,0,0,0-5.64.63c-1.78.51-2.56.66-2.82.3l-.69-1-1.18.13a38.32,38.32,0,0,0-7.92,1.71,51.42,51.42,0,0,0-10.35,5.08l-1.71,1a4.29,4.29,0,0,0,1.39-2.29,3.31,3.31,0,0,0,.55,0,2,2,0,0,0,.31-.12,7.23,7.23,0,0,0,1.44-.85,3.3,3.3,0,0,0,.77-.78l1.8-1.55c.13,0,.29,0,.4,0a2.29,2.29,0,0,0,.35-.16,3.85,3.85,0,0,0,1.17-.85,2.86,2.86,0,0,0,.47-.65l1.06-1.24.22.09.87-.79a3.12,3.12,0,0,0,1.5-2.42l.49.59,0,.74.58-.53.08,0-.56.58a3.16,3.16,0,0,0,1.1.69l.63.4.65-.14,1,.45,1.18-1.62h0a2.5,2.5,0,0,0,.76-2l-.33-3.2-1.37.84-1.44-4.09-1.86,4a3.75,3.75,0,0,0-.94,1.09,2.53,2.53,0,0,0-.22-.8l-.27-1.25-.77-.5a2.63,2.63,0,0,0-2.2-.22l-1.16.5-.5.82a2.57,2.57,0,0,0-1.33.77,1,1,0,0,0-.08.11l-.34-.62-.46,1.19-2.56.85,1.68,1.4-.16.44a2.62,2.62,0,0,0-.74.85,2.18,2.18,0,0,0-.21,2l-.05.1-.38-.22a2.79,2.79,0,0,0-.58-.13l-1.41-1.7-1.14,1.76a3.36,3.36,0,0,0-1.39,1.09l-.65.77.1.91a1.15,1.15,0,0,0,.06.28l-.46.5.6.48a14.84,14.84,0,0,1-3.1,1.37l-1,.38s-2.2.64-3,.87a3.33,3.33,0,0,0-1.27.86,3.29,3.29,0,0,0-1.95,0,2.25,2.25,0,0,0-1.21,1l-.53-.61-3,1.24.87,1.82h0l0,.1-.79.24v0L547,760l-.16-.78h-.15c.11-.52.3-.89.18-1a2,2,0,0,0-1.12,1l-.74.07-.1.07-.21.07-2,1,.29.48a3.4,3.4,0,0,0-.4.34,2.3,2.3,0,0,0-.72,2.26l-2.41,3.3,4.48-.72c-.47.17-1,.35-1.46.51-1.89.63-3.78,1.13-5.69,1.64s-4.11,1.09-6.22,1.8a42.57,42.57,0,0,0-8.33,3.73l-1.67,1.31c-1.07.35-2.18.77-3.37,1.23l-1.27.47a8.13,8.13,0,0,1-1.45.36l2.21-1.59-3.78-1.24-1.1-.22-.64.21a2.73,2.73,0,0,0-.74.39l-1.05-1-1.3.44a7.84,7.84,0,0,0-2.29,1.49l-.37.46-.66.19a4.14,4.14,0,0,0-1.22,1.61c-.3,0-2.64,0-2.84,0l.2-.35-1.78-2.17-1.33.44-.47.29-.9-1a9.14,9.14,0,0,1-2.1-.39l-.45,1.78.36-1.8-.61,2.6h-1.09c0-.67.39-1.1-.13-1.6l-1.26-.81-1.52-.3-.92.31-1.83,1.23.24.62a3,3,0,0,0-1.54.11,2.76,2.76,0,0,0-1.43,1l-.7-.65-1.33,1.22-.23-.14-.5-.1a2.43,2.43,0,0,0,.33-1.51l-.64-2.19-3.71-.24a5.76,5.76,0,0,0-1-.77l4.94-3.24-7.09.18a41.11,41.11,0,0,0-11.34,2.15c-1.2.4-1.85,1.44-2.51,2.69a4.51,4.51,0,0,1-1.4-.09,6.4,6.4,0,0,0-2.72,0l-.14.06a13.57,13.57,0,0,0-3.31.5,2.89,2.89,0,0,0-1.63,1.19l-.51-.47-1.34.9a4.41,4.41,0,0,0-1.19,1.21l-2,.89.57.14-.2.78a4.05,4.05,0,0,0-.46,2.1.06.06,0,0,0,0,.06l0,0a7,7,0,0,0-1.64-.66,3.31,3.31,0,0,0-1.81.12,2.88,2.88,0,0,0-2.74-.52,5.68,5.68,0,0,0-2.27,1.86,12.07,12.07,0,0,0-1.28,1,4.68,4.68,0,0,0-1.72.22,4.81,4.81,0,0,0-1.09.53l-1.09-1-1.22.72-.91-.3-.63.1-.28-.22.11-.37-.09-.74-.53-2.39-3.3,1.11h-1l.72-6.07-4.37,6a2.39,2.39,0,0,0-1.7,1.69v.07a20.22,20.22,0,0,1-3.44,1.94l-5.7,2.49c-.78.37-1.52.76-2.25,1.17l0-.07-1.14-.14a5.12,5.12,0,0,0-2.33.2,6.42,6.42,0,0,0-2,1.17,5.83,5.83,0,0,1-1.53.92l.7,1.9-1.6-1.56c-.36.13-.74.28-1.45.58l-1,.45-1.2.72a8.16,8.16,0,0,0-.93.74l-.58-.57-2.4,2.94-.81.27a4.17,4.17,0,0,0-1.1.58,4.24,4.24,0,0,0-.84-.5l-1.84-.52-.54,1a5.79,5.79,0,0,0-2.4.35l-.12.05a2.14,2.14,0,0,0-.78.65,3.08,3.08,0,0,0-1.71,0l-1,.49-.17.51a2.5,2.5,0,0,0-.33.26l-.9.28-.3.29-.39-.91-.65,1.68a1.69,1.69,0,0,0-.41.26l-2.36.78.48.38c-.23,0-.47.1-.7.13l-1.92.21.06,1.07-.92.87-.16.64a2.11,2.11,0,0,0,.13,1.37s0,0,0,0a11.83,11.83,0,0,1-1.41,1.27s-1.81,1.34-2.22,1.61L367,810.89l-.26-.21-.74-.06c-.55,0-1.09,0-6.46,1.44-2.36.61-4.71,1.23-5.28,1.3a34.34,34.34,0,0,0-9.93,1.66l-2.08.72a22.28,22.28,0,0,1-5,1.1A29,29,0,0,0,333,818.1c-1.51.5-3,1-4.23,1.28a6.86,6.86,0,0,0-2.41,1.67,10.85,10.85,0,0,0-2.22.47,15.25,15.25,0,0,0-2.61,1.24c-.41.13-2.41.64-2.89.8a5.86,5.86,0,0,0-1.35.62c-1.08.7-1.47.86-1.41.86l-1.32.27c-.93.31-1.42.8-2.3,1.15a6.66,6.66,0,0,0-2.53-.28l-1,.21c-.94.31-1.5.9-2.38,1.19l-.08,0a3.3,3.3,0,0,0-2.35-.2,3.44,3.44,0,0,0-.37.14,10,10,0,0,1-1.14-1c-1.25-1.16-2.55-2.36-3.87-2.21a3.36,3.36,0,0,0-2.54,0c-.56.18-1.14.48-1.65.68a5.24,5.24,0,0,0-2.73-.48l-2.09.44a18.68,18.68,0,0,1-4.4.27,18.88,18.88,0,0,0-6.91.82c-1.22.2-3.72-.49-6.13-1.16-4.1-1.12-8.74-2.41-12.45-1.17l-.9.36,1.32,3.8c3.94-.91,5.72,1,8,3.38,2,2.13,4.23,4.53,7.54,3.94,2.07.13,2.92.92,4.21,2.11a15.28,15.28,0,0,0,3.37,2.51l5.3,2.77-2.93-6.27.24-.08a2.28,2.28,0,0,1,1.61-.15,4.84,4.84,0,0,0,1.64.21l-.22.77,4.2,1.33.38-.11a3.43,3.43,0,0,0,1.33,1.61,2.8,2.8,0,0,0,2.37.24l.59-.3.86.71,2.45-3.52c.49.34,1,.63,1.08.58h0l.25,3,4.48-2.26a12.64,12.64,0,0,0,3,.44l2.19.09a41.4,41.4,0,0,1,5.12.36l0,0,2.39,3.23c.37-.22,1.24-.85,1.29-.88l-.6,2.76s4.9-1.24,5.57-1.39c-.27.33-3.76,4.91-3.76,4.91l4.89-.71a20.75,20.75,0,0,0,3.51-.78,7.71,7.71,0,0,0,5.13-4.51,3.08,3.08,0,0,1,2.2-2.06,9.84,9.84,0,0,1,1.05-.28l-2,4.24,8-4.28,2.71,2.87L349,841c6.89-6.56,15.89-10.21,24.92-13.57.41-.07.86,0,2.74,1l5.49.66,1,0a15.36,15.36,0,0,0,5.7-.54,10.08,10.08,0,0,0,1.57-.68l1.78-1-.9-1.64a31.19,31.19,0,0,0,4.61-2.74,28.09,28.09,0,0,1,6.07-3.4,4,4,0,0,1,3.18,0l1,.49,2-1.17,3.28-1.11-1.55-1a3.82,3.82,0,0,1,.8-.38,2.36,2.36,0,0,1,1.28-.09,9,9,0,0,1,1.66.63,11.7,11.7,0,0,0,3.47,1.11l.8.1.64-.47a4.66,4.66,0,0,0,1.62-1.74l.66.12a27.41,27.41,0,0,0,7.9.45c4.88,1.45,19.55-2.65,20.57-3l.06,0a43.48,43.48,0,0,0,11.29-2.56l8.24-2.83c4.39-1.46,9.49-3,14.11-3h2v-.85a9,9,0,0,0,1.75-.4,27.11,27.11,0,0,0,6.15-3.46c.62-.42,1.24-.84,1.85-1.23l1.46,1.75c1.2-.91,2.54-2.14,3.92-3.4a37.71,37.71,0,0,1,5.47-4.5l2.9.4.58-.3c1.43-.75,2.54-1.32,3.06-2.46a13.33,13.33,0,0,0,3.65-.49l5.54-1.11a3.22,3.22,0,0,0,2,0,5.47,5.47,0,0,0,2.27-1.87s.06,0,.07.06a5.68,5.68,0,0,1,1.88-.28,8.84,8.84,0,0,1,3,.54L533,788.3l.34-2.8c0-.22.1-.74,1.35-1.16a16.26,16.26,0,0,1,6.22-.25l.67,1.17,6.93-5.24a6.28,6.28,0,0,0,3.07,0l1.27-.68,1.4-1.82-.64-.71.15-.11c1.22.69,2.08.94,3,.63l3.8,2.14-.11-1.61.29.14,1.85-.62.29-1.05v-.81l.75,0,.45-.15a2.4,2.4,0,0,0,1.25-1,3.2,3.2,0,0,0,1.79-3l.06,0,1-.33a5.68,5.68,0,0,0,2.76-2.57l.19-.66c.78-.08,1.61-.13,2.48-.18a32.05,32.05,0,0,0,8.81-1.42q.79-.25,1.62-.6l-.1-1.66c2.72-.83,5.28-1.64,7.7-2.45,10.73-3.58,19.54-7.33,30.3-14.94l5.8-4.24-3.2.26C625.88,741.11,626.79,739.69,626.11,738.16Zm-48.48,8.16a1.2,1.2,0,0,1-.17-.34c0,.06.1.13.16.19Zm-9.28,1.78v.07h0Zm-6.11,10.77-.61.33-.09,0Z"/><polygon class="cls-1" points="657.34 614.19 657.24 614 660.8 612.1 657.34 614.19"/><line class="cls-1" x1="659.12" y1="613.24" x2="659.02" y2="613.05"/><path class="cls-14" d="M607.9,679.69l-1.79-.43-.32,0-.35-1-2,.89a7,7,0,0,0-3.17.84l-1.2.59-.14.81-1.5.63.28.31h0a11.78,11.78,0,0,0-3.22,1.17c-1.13.53-2.6,1.23-4.56,2a47.06,47.06,0,0,0-5.24,2.56c-1,.56-2,1.1-2.91,1.51-2.81,1.3-5.06,2.45-6.53,4.16a3.14,3.14,0,0,0-1.47.56,3.92,3.92,0,0,0-2.58-.53l-.3,3.9-.07.06a1.74,1.74,0,0,1-1.24-1.73,2.76,2.76,0,0,0,.1,2.17,2.85,2.85,0,0,0,.18,1.13,2.05,2.05,0,0,0,0,.6l.13.9.76.5a2.47,2.47,0,0,0,.93.35l-.22.83a5.55,5.55,0,0,0-2.1,1.73l-3.47,2.94-1.81.27a1,1,0,0,0-.27.09l-.75-.82-1.46,2a6.53,6.53,0,0,0-1.84,1.7c-3-.08-9.83,3.06-11.45,4.34l-.65.19-5.77,1.55c-1.7.47-3.35.92-5,1.44-5.53,1.69-12.55,4.26-17.27,9.05a14.42,14.42,0,0,0-6.82,1.4c-2.55,1-3.49,1.2-4,.58L508,728l-1.13.2c-8.84,1.58-14.49,4.8-20,7.91-4.89,2.79-9.6,5.41-16.5,7.05a3.79,3.79,0,0,0,.73-1.06l1.83-1.2,2.35-1.58-.18-.62a11.25,11.25,0,0,0,2.69-1.16l-.29-.42.3.41,1.29-1-.57-1.45c-.49-1.26-1.39-1.42-3.28-1.26l.17-.21a16.16,16.16,0,0,1,2-.52v.08a3.14,3.14,0,0,0,1.42-.12,2.36,2.36,0,0,0,1.23-.91,2.51,2.51,0,0,0,.09-2.63,3.88,3.88,0,0,0-.6-.85,2.69,2.69,0,0,0-1.73-2.25,4.45,4.45,0,0,0-3.12-.24,6.85,6.85,0,0,0-3.45,1.05,2,2,0,0,0-1.87.58l-1,1.06.63,1.29a3.21,3.21,0,0,0,.19.31,2.58,2.58,0,0,0-.83,2.31c-8.3,1.43-10.07,2-11.48,2.56a20.61,20.61,0,0,1-4.3,1l-1.84.28,0,.59-.7.28-1.21.71-.21,1c0,.1,0,.19,0,.28-2.61,1-4.59,2.08-4.15,4.06s2.79,2,4.76,1.89a2.76,2.76,0,0,0,1.56,0l-1.88,3c-3.93.88-7.88,1.46-12.08,2s-8.45,1.11-13.21,2.08c-3.46.76-5.26.77-6.54-.08,0-.1,0-.21-.05-.32l.22-.12,3.6-1.83-3.62-1.78a3,3,0,0,0-2.51-.13,3.29,3.29,0,0,0-1.09.74,2,2,0,0,0-.53-1.16c-1.34-1.55-3.54-.46-5.52.69L407,749a3.45,3.45,0,0,0-1,.22,4.51,4.51,0,0,0-1.85,1.67c-.11.14-.26.33-.4.49a23.43,23.43,0,0,1-2.41-.39l-1.54-.26a18,18,0,0,0-3-.19l.39-1c0,.06,0,.12.07.2.13.41,0,.68.12.59l1.16-1.46-1-1.28a2,2,0,0,0-2.65-.44l-1.15-1.57a8.62,8.62,0,0,1-2.71-.89l-.65-.27-.12-.06h0l-.78,1.87h0l-.75,1.83a1.37,1.37,0,0,1-.3-1,1.15,1.15,0,0,1,.48-.88A1,1,0,0,1,388,746c-.27-.2-.53-.43-.85-.69l-1-.94a24,24,0,0,0-2.13-1.88l-2.85-2-.34,3.47a5.63,5.63,0,0,0,.13,1.63,3,3,0,0,0-.45.53,3.66,3.66,0,0,0-3.86-.44l-.09-.25-.92-2.21-2,1.27-.57.33a4.42,4.42,0,0,0-1.23-.75l-.88-.37-3.56,1.9a5,5,0,0,0,.61-2.85l.78-.4a23.8,23.8,0,0,0,3-1.74,5.72,5.72,0,0,0,1.21.53,3.22,3.22,0,0,0,1.92,0,3.59,3.59,0,0,0,1.72-1.3l.46-.5-.14-1.2.3-.46a2.27,2.27,0,0,0,1.41,1l1.86.13.27-.6a2.58,2.58,0,0,0,.73-.26,4.07,4.07,0,0,1,.52,0,3.94,3.94,0,0,0,1.54-.3,2.62,2.62,0,0,0,.84-.62l5.22-.6-2.36-1.83.05,0a4,4,0,0,0,2.76.66,10.88,10.88,0,0,0,1.28-.32,3.46,3.46,0,0,0,2.24-1.8,2.71,2.71,0,0,0,0-2.25c.37-.09.75-.17,1.07-.23,2.76-.56,5.14-1.06,5-3.23a2.21,2.21,0,0,1,.23-.47,2.59,2.59,0,0,0,.23-2.79c-.81-1.36-2.52-1.3-3.9-1.25l-.66,0-.52.41c-1,.82-1.35.83-1.92.86a6.41,6.41,0,0,0-2.57.6,13.57,13.57,0,0,1-2.31.15,9.58,9.58,0,0,0-2.63.24,4.38,4.38,0,0,0-2.3,1.5c-.71.06-1.35.08-1.88.09l-4.78.25.75.82a2.36,2.36,0,0,0-.93.45,3.87,3.87,0,0,0-2.6-.39l-.07,2.32-1.42-.51-.53,1.41.39.71-.14.63.28.39a1.71,1.71,0,0,0,0,.32l.07.76-.47,1.2-.34.25s0,0,0,0l-3.47-1a7.46,7.46,0,0,0-2.49-2.35l-.1-.06,6.23-2.73L365,728.22c-1.31-.21-2.83-.2-4.26-.28a3.08,3.08,0,0,0,0-2.64l-.74-1.73-1.78.6-.54.33-5.06-.23-.8,2.15-1.2.42-1.31,1.21,0,.34c-.32,0-.57,0-.89.07a6.32,6.32,0,0,0-3.42,2.27,12.9,12.9,0,0,1-.95,1,6.43,6.43,0,0,1-2.49-.52,9,9,0,0,0-4.19-.67,17.53,17.53,0,0,0-4.28-.11l.46-1a3,3,0,0,0-.6-.35l.06-.74-.84-.68a2.2,2.2,0,0,0-1.35-.49l.23-.52-2.72-.31c-5.31-.6-7.2-.52-8,1.15s.45,2.74,1,3.25l.24.26c.61.74,1.51.87,2.7,1,.28,0,.55.07.77.12a3.46,3.46,0,0,1,.22.31c.17.25.34.45.5.67l-.57.13.31.14-.27.3a2.64,2.64,0,0,0-1.85,1.48,5.61,5.61,0,0,0-1.11,3.28,2.43,2.43,0,0,0-.79.45l-.43-.33a11.24,11.24,0,0,0-2.36-1.5,4.75,4.75,0,0,0-2.5-.14l-.1,0a3.82,3.82,0,0,0-2.29-1.47,4.32,4.32,0,0,0-3.53,1.35,4.53,4.53,0,0,1-.9.66,14.5,14.5,0,0,0-2.38,1.35,6,6,0,0,0-4.88.65,3,3,0,0,0-.6-1.07l-1.63-1.1-1.33.5a2.38,2.38,0,0,0-.43-.22v0a2.07,2.07,0,0,0-1.6-.33,2.53,2.53,0,0,0-.87-.85l0-.06.37-1.95a1.38,1.38,0,0,0,.2,0l1.74-.52,4.6-1.86-4.61-1.67-.07-.08-.18-.88-.46-.46a2.19,2.19,0,0,0-.57-.43l-.8-2.39-1.71,1.31a3.82,3.82,0,0,0-2,.61,2.14,2.14,0,0,0-1,1.83l-.38.2.26.64-.28.32.19,1.56a3.48,3.48,0,0,0-2.89.56l-2.42-1.91a3.92,3.92,0,0,0-1.74.74,5.31,5.31,0,0,0-1.19-.24l-.78-.08-.69.73a2.9,2.9,0,0,0-1.61.23c-.2,0-.43-.06-.65-.09a4.42,4.42,0,0,0-1.88,0,2.89,2.89,0,0,0-1.19.73l-4.57-.28,1.77,2.57a2.59,2.59,0,0,0-.05.7l-.06,0-3.27.78a9.88,9.88,0,0,0-1.58.43,39.26,39.26,0,0,0-4.49,1.43l-.16-.62-1.08-.34a6.78,6.78,0,0,0-6,.82,8.94,8.94,0,0,1-2.39,1l.41,2h0l-1.14-1.84c-.3.08-.58.13-1,.2s-.77.15-1.48.32l-.81.17a16.57,16.57,0,0,0-3.15,1.07,10.47,10.47,0,0,0-2.06,1.23l-.6-.84-4,3.37a4.56,4.56,0,0,0-3.39.85,4.15,4.15,0,0,0-1.33-1.38l-1.51-1-1.19,1.4a5.61,5.61,0,0,0-4-.23,2.6,2.6,0,0,0-1.69,2.47l-.19.06a2.83,2.83,0,0,0-2.9-1.55,2.27,2.27,0,0,0-1.65,1.38c-1.09.22-2.21.41-3.16.57a4.69,4.69,0,0,0-2.5,1.62,26.6,26.6,0,0,1-2.68,0l-2.15-.12v1.19A3.6,3.6,0,0,0,210,752.4a2,2,0,0,0,.15,1.85l-.53.44a19.68,19.68,0,0,1-2,1.3c-.63.34-1.29.69-2,1s-1.35.63-2.3,1.05c-1.28.55-2.56,1-3.79,1.51l-.4.2c-1.62.29-3.22.62-4.83,1-27.78,6-57.61,20.11-83.82,39.42-2.92,1.52-5.15,5-7.51,8.63a48.48,48.48,0,0,1-4,5.63L94.11,820l7-2.33.09,0a18.31,18.31,0,0,0,7.3-4.23,20.79,20.79,0,0,1,4.51-3.18c2.41-.45,4.51.37,6.94,1.31a26.47,26.47,0,0,0,5.69,1.71l1.46-3.66-1.54-1.07a2.32,2.32,0,0,1,1.59-.56,4.72,4.72,0,0,0,2.91-1l3.93,9.24,1-7.67a3.51,3.51,0,0,1,.74-.5c1.4,1.23,2.5,1.69,3.61,1.57a2.94,2.94,0,0,0,2-1.18L143,809l0-4.45c1.21.35,2.64.79,2.93.94l1.61,1.76,2.63-3.35c1.71-.13,3.88-1.28,6.74-2.81a42.43,42.43,0,0,1,5-2.41l3.51,1.59A9.24,9.24,0,0,0,166,799c.2-.42.36-.76.51-1l1.8,3.66,1.93-1.33a26.68,26.68,0,0,1,4.08-2.4,13.54,13.54,0,0,0-.39,3.19l-.1,3.35,3-1.48c6.21-3,6.17-6.08,5.58-8.93-.26-1.31-.45-2.25,2.75-3.67l1.06,4.36,4.29-5.77,5.22,2.16.59-2.25c1-3.91,5.27-4.74,12.14-5.64,5-.65,10.14-1.33,13.69-4.3.83-.27,2.39.06,4,.42,2.87.62,6.44,1.4,10.33.11l1.94-.63-.68-2c1.79.33,3.86.58,6.1.85,6.33.78,14.22,1.74,18.65,4.86l.83.59,5.21-1.87-.65-1c2.54-1.28,4-1.1,5-.76l.22.09a13.53,13.53,0,0,1,2.42,1.43,16.26,16.26,0,0,0,4.46,2.34l.76.22.71-.34c1.12-.55,3-1.48,2.76-3.32a2.13,2.13,0,0,0-.22-.74,10.44,10.44,0,0,0,3.81-2.23c1.75-1.39,3.27-2.58,7.76-2.19,2.35,1.45,8.5,1,26.68-1.34l3.82-.5c5.53.72,12.08,1.21,19,1.72,10.18.76,20.71,1.54,30.15,3.17l2,.34.16-1c3.71,1.06,7.44.66,11.06.27a35.43,35.43,0,0,1,9.1-.19l1-3.37a25.16,25.16,0,0,1,3.27-.35,29.37,29.37,0,0,0,4.9-.63l4.14,1.36.62-.21c2.61-.81,4.11-1.32,4.28-2.86A1.17,1.17,0,0,1,416,771c4.29,1.27,10.28,0,14.37-.84.75-.16,1.56-.33,2.17-.44l-2.12,3.59,5-1.6.27-.09c3.05-1,4-2.19,4.72-3.41.26-.41.53-.81,2.15-1.12l.37,1.61,2.24-1C454,764,469,759.46,482.34,755.49c19.47-5.81,23.82-7.29,25-8.94a2.2,2.2,0,0,0,1.12-2.26,2.4,2.4,0,0,0-.27-.82l1.61-.43c3.75-1,7.65-2.09,10.74-3.25,2.58-1,5.11-2,7.67-3.13a11,11,0,0,0,3.66-3.13c2.23-2.57,2.54-2.44,3.65-1.54l1,.79,1.15-.59c2.61-1.33,5.08-2.71,7.33-4.12a2.49,2.49,0,0,1,1.41-.47,5.77,5.77,0,0,0,3.26-1.3,22.77,22.77,0,0,0,2.14-2.19l.45-.5c.4-.5.83-1,1.25-1.43s.51-.56.51-.57a3.24,3.24,0,0,1,.49-.22,5.37,5.37,0,0,0,1.53-.85,2.49,2.49,0,0,0,.58-.76,3,3,0,0,0,1.87-.73,2.21,2.21,0,0,0,.43-2.88,5.66,5.66,0,0,0,0-.58h0l.9.7v.07H560a3.5,3.5,0,0,0,1.59-.18l.46-.18c.32-.13.62-.3.5-.28l.94-.72a2,2,0,0,0,.5-.3l.17-.15h0l.26-.25a1.75,1.75,0,0,0,.24-.23l.92-.85-.74-.77.8.7.46-.52c1.14-1.32,1.45-1.73,1.61-2.28l1.06-4s0,0,0,.06c.35,2.15,2.65,3.41,4.63,3.51l2.68.23-.6-2.6a7.73,7.73,0,0,1,.22-1c0-.16.07-.38.12-.56a2.08,2.08,0,0,0,1,.48l1.9-.09.12-.45a2.75,2.75,0,0,0,.61-.24h.42a4.84,4.84,0,0,0,1.61-.24,2.86,2.86,0,0,0,1-.71l4.71-.38-2.58-2.4a3.43,3.43,0,0,0-1.11-2.41c0-.05-.1,0-.15-.08.81-.25,1.61-.49,2.23-.7a15.49,15.49,0,0,0,5-2.32,5.08,5.08,0,0,1,2.18-.86l2.36-.62-.77-1.62a10.43,10.43,0,0,0,2.8-1.83,2.3,2.3,0,0,0,.34-2.73,2.5,2.5,0,0,0,.59-1.26c.34-.23.89-.59,1.79-1.13l1.23-.73.8-.06a2.1,2.1,0,0,0,.65,0l.5-.1.8-.28a3.57,3.57,0,0,0,.9-.16l.51-.17c1.74-.59,2.26-.83,2.68-1.28L612,679.1l-4.14.83Zm-211.06,69.4,0,0h0Zm79.71-17.89.06,0v.21A.69.69,0,0,1,476.55,731.2Zm1.08.24,0-.27h0Zm-1.21-3.33A2.18,2.18,0,0,0,476,728l.43-.14Zm-21.34,17.44a87.61,87.61,0,0,1,9-3.75l-1.78,1.68a54.45,54.45,0,0,1-13,4.81Zm-79.15-10.37.6-.29a4.38,4.38,0,0,0,.05.74s0,.09,0,.13l-.34-.32Zm2.73.55a1.81,1.81,0,0,0,.08.34l-.41-.21Zm-4.87-5.18v.25c-.2.16-.39.32-.56.48l-.54-.11a1,1,0,0,1-.13-.2Zm-77.2-1.68a1.32,1.32,0,0,1,.26.53l-1.67.25,0-.08Zm-4.93,1a1,1,0,0,1,.33-.29l-.41.44Zm281.41-26.1h0l-.56-1.43.63-.31-.06,1.74Zm6.29-5.37c0,.05.07.1.09.16a1.51,1.51,0,0,0-.3-.1Zm-5.85,3.45.75-.39c0,.11,0,.24,0,.33a2.13,2.13,0,0,0,0,.25A3.7,3.7,0,0,0,573.51,701.87Z"/><path class="cls-14" d="M684.89,587.75l-.64-.06.64-.05-.89,0-.94-.09a17.46,17.46,0,0,0-1-5.69c-.23-.82-.48-1.62-.63-2.38l-2.44,0a3.43,3.43,0,0,1-.49-.68c-.11-.17-.23-.36-.37-.56l1.92-2.71-1.87-1.12a3.94,3.94,0,0,0-3.45-.46l-.13,0a5.1,5.1,0,0,0-1.17-1.63l1-.36-.76-1.91a3.61,3.61,0,0,0-4.87-2.26l-.55.25-.55-.38a36.41,36.41,0,0,0-20.84-6.8l-6.06-.1.55.43a21.4,21.4,0,0,0-8.32.91h0a12.65,12.65,0,0,0-2.72,1.34,12,12,0,0,0-4.08,4.42l-2.72,5.69,5.77-2.85a3.86,3.86,0,0,0,2.24,0,2.71,2.71,0,0,0,1.67-1.67c1.49-.26,1.74,0,2.23.68a3.05,3.05,0,0,0,3.48,1.34l.45-.18a4.23,4.23,0,0,0,.93.31l-.08.61,1,.7c2.41,1.67,4.84,1.35,6.78,1.09a6.93,6.93,0,0,1,4,.23,4.23,4.23,0,0,0,.85.76,1.31,1.31,0,0,1-.41-.63l.34-.57,2.87,2.06.87-.86c1.64,0,2.09.76,3.13,2.48a12.4,12.4,0,0,0,3.5,4.15s1.46.84,1.68,1l-1.76,1,1.25,1.61-.23.14.27-.09,1.32,1.69a1.89,1.89,0,0,1-1.19-.59,4.68,4.68,0,0,0,.71,2.44,18.55,18.55,0,0,1-2.8,2l1.45,2.28-1.4.91.63,1.37-1.3,1.19-.19.07c-.47-.22-.87-.45-1.23-.66a6.86,6.86,0,0,0-2.45-1l-6.29-.94,3.88,3.71-1.09-.33-.7,1.7a4.4,4.4,0,0,0,.41,4.2l-2.59.25s5,3.32,5.13,3.39a2.72,2.72,0,0,0-.35.57l-.26,1.63-1-.5-.87.29c-.84.28-2.2,1.12-1.82,3.83,0-.44.28-1.21,1.61-1.65l.28-.09-.84,1.83s0,0,0,0,0,0,0,0l-.9,2a5.43,5.43,0,0,0-.17,1.11l-1.22,1.51a4.18,4.18,0,0,0-.57,3.08l-.65.22-.21,1.2,0,.59a1.42,1.42,0,0,1-.74.9l-.64.08-.48.42c-1.93,1.72-.85,4-.26,5.28a2.86,2.86,0,0,0,.29.55,28,28,0,0,0-5.61,6.49l-1.37,1.7a3.82,3.82,0,0,0-1.7,1.19,3,3,0,0,0-.38,2.33,3.37,3.37,0,0,0-.53.12l-1.09.54-.39.6c-1.09,1.7-2.16,3.41-2.78,4.64a4.56,4.56,0,0,0-1.45,3.26c-.06.39-.11.85-.23,1.4l-.1,3.17.88-.19c-.48.63-1,1.31-1.58,2l2.53,3,4.56-2.38a8.86,8.86,0,0,0,3.49-.22c1.69-.57,2.59-2.06,2.26-3,.06-.26.11-.52.15-.76.22,0,.46-.12.7-.2a18.89,18.89,0,0,0,4.13-2.18l1.05-.72,0-.2c.33-.21.74-.44,1.2-.72a31.1,31.1,0,0,0,6-4.31l.14-.08,5.94,1.69-2.77-4.45a5,5,0,0,1-.43-.86,5.82,5.82,0,0,1,1.16-.84c1.11-.67,3-1.84,3.21-3.63a10.13,10.13,0,0,0,1.79-.36,4,4,0,0,0,2.41-2.05l.62-1.33.38-.17a27.87,27.87,0,0,1,2.72-1.13,10.62,10.62,0,0,1,4.31-.57l5.94.12-4.79-3.87,0-.13.5-.07a9.69,9.69,0,0,0,2.06-.4l.81-.34,1.37-.82-.22-1.36a3.1,3.1,0,0,0-1.29-2.22l-.6-.28a5.37,5.37,0,0,0-.6-1.55c-.21-.42-.32-.6-.29-.77a2.58,2.58,0,0,0,1.56-2.81h-.81l.91-.68c-.46-1-.27-1.54.37-3.07a12.4,12.4,0,0,0,1.16-4.78c2.34-5.16,2-14.88,1.9-19.62l-1.88-.91s0-.06,0-.09Z"/><path class="cls-14" d="M643.59,587.12l1.5.33.87-.85a3,3,0,0,0,.71-2.42l4-1.21.26-1.16a3.11,3.11,0,0,0-.43-2.7,2.55,2.55,0,0,0-2.21-.86l-.84-.33c-1.27-.51-2.36.24-3.52,1.1a1.92,1.92,0,0,0-.57-.39l-1.9-.45-1,1.41a3.85,3.85,0,0,0-.5,3.94l1-.27.11.63A4,4,0,0,0,643.59,587.12Zm5.12-8.06-.17-.67a1,1,0,0,1,.6.33Z"/><path class="cls-15" d="M449.44,498.69a12.1,12.1,0,0,1-6.19.55,6.33,6.33,0,0,1-4.34-3c-2.91-5.59-2.65-13.08-1.94-18.39,1.13-6.78,1.81-12.88,2.32-17.95.3-2.13.53-4.17.77-6.21.84-7.2,1.72-14.65,4.32-21.85a67.38,67.38,0,0,1,21.37-32.52c2.77-2.11,4.94-1.8,6.3-1.19,2.73,1.22,4.19,4.68,4.43,7.58.75,8.37.48,23.37-9.84,29.58l-1.94,1.06c-4.27,2.3-7.34,4-8.11,7.21-1.27,5.81-1.45,11.66-1.31,19.19.08.93.12,2.15.16,3.41.08,2.57.24,7.33,1.29,8.11,7.43-2,10.34-12.37,13-21.68.79-2.74,1.55-5.36,2.36-7.63A111.27,111.27,0,0,0,476,430.69c.55-2.45,1.09-4.89,1.73-7.32l-1-2.89.6-.84a47.77,47.77,0,0,0,3.59-6.27c2.82-5.51,5.88-11.29,12.63-12.89,1.8-.34,3.11,0,4,.93,1.61,1.7,1,4.4.26,7.26-.41,1.64-.9,3.68-.67,4.73A61.26,61.26,0,0,1,499.1,427c.49,7.3.9,13.62,5.52,18.51,2.19,2.31,8.18.42,13.13-2.44l1.65-1.56a16.18,16.18,0,0,1,6.15-4.21,3.73,3.73,0,0,1,4.31,1.43c1.62,2.2,1.72,6.27.22,8.38l-.89,1.17c-8,10.51-17.9,23.57-32.52,23.6h0c-8.22.23-14.24-8-16.55-11.81-.62.6-1.37,1.55-1.69,1.93-1.9,3.08-3.71,6.52-5.46,9.86-4.65,8.87-9.45,18.05-19,24.49A17.22,17.22,0,0,1,449.44,498.69Zm20-96.89a4.24,4.24,0,0,0-1.17.67c-9.47,7.83-16.06,17.87-20.05,30.64-2.47,6.84-3.28,13.74-4.13,21q-.36,3.09-.76,6.21c-.53,5.07-1.22,11.25-2.35,18.08-.9,6.63-.37,12.28,1.49,15.85a2.36,2.36,0,0,0,1.62,1c2,.43,5.21-.5,7.58-2.23,8.75-5.92,13.11-14.25,17.73-23.06,1.78-3.41,3.63-6.93,5.75-10.32,1.9-2.4,3.53-4.21,5.53-4.08a2.91,2.91,0,0,1,2.35,1.46c3.05,5.37,8.19,11,13.59,10.78l.06,1.8v-1.79c12.61,0,21.49-11.7,29.29-22l.86-1.13c.54-.75.29-3.19-.28-3.65a16.36,16.36,0,0,0-4.35,3.38c-.69.66-1.4,1.32-2.15,1.93-4.1,2.41-13.52,7-18.35,1.92-5.63-6-6.13-13.62-6.61-21a59.86,59.86,0,0,0-1.81-12.86c-.47-2.1.1-4.44.65-6.69a23,23,0,0,0,.63-3.31l-.13,0c-5,1.21-7.25,5.65-9.87,10.77a57.71,57.71,0,0,1-3.32,5.93l.7,2.11-.15.59c-.69,2.57-1.27,5.14-1.85,7.74a114.59,114.59,0,0,1-4,14.75c-.78,2.18-1.51,4.71-2.28,7.37-2.89,10-6.17,21.39-14.63,24.21-.26.09-.51.16-.77.23a4.45,4.45,0,0,1-3.93-.63c-2.61-1.95-2.76-6.66-2.91-11.22,0-1.19-.08-2.34-.16-3.34-.14-8,.05-14.07,1.41-20.3,1.19-5,5.53-7.38,10.13-9.87l1.84-1c8.69-5.23,8.36-19.73,7.83-25.73-.16-1.88-1.09-3.82-2.05-4.24A1.29,1.29,0,0,0,469.43,401.8Z"/><path class="cls-15" d="M496.67,469.86c-6.54.23-12.19-6.14-15.36-11.73-1-1.66-3.21,1.07-4.46,2.63-7.47,11.95-11.37,25.39-24,33.93-3.89,2.84-10.11,4.12-12.19.52-2.44-4.67-2.47-11.34-1.7-17.11,1-6.2,1.72-11.94,2.34-18,1.28-9.45,1.74-18.64,5-27.57,3.83-12.25,10.4-23.08,20.76-31.65,4.59-3.49,7.14,1.56,7.42,5,.83,9.15,0,22.37-8.86,27.67-5.25,2.92-9.87,4.86-11,9.54-1.39,6.37-1.49,12.68-1.37,19.7.46,5.35-.41,14.71,4.48,13.41,10.13-2.66,12.62-20.32,16.3-30.55,2.77-7.6,3.84-15,5.79-22.33l-.82-2.48c4.79-6.69,6.47-16.29,15.05-18.38,5.43-1,.26,7.38,1.16,11.4,3.47,11.77-.24,24.42,7.94,33.07,3.4,3.59,10.82.69,15.62-2.09,2.44-2,4.25-4.54,7.42-5.6,2.76-.92,3.74,4.63,2.24,6.72-8,10.51-17.64,23.92-31.76,23.93"/><path class="cls-15" d="M415.22,581.58a12.36,12.36,0,0,1-2.72.65,9.3,9.3,0,0,1-2.72.38l-1.15-.18a14.44,14.44,0,0,1-3.47-.81l-1.46-1a16.53,16.53,0,0,0-1.83-1.21l-.68-.39-.29-.86-.37-.13-.71-1.14a7.84,7.84,0,0,0-1.69-3.26h0c-.22.07-2.72,0-4.37,0-4.26-.12-6.1-.24-7.18-.94a88.55,88.55,0,0,1-8.13-4.64l-2.77-1.68a5.42,5.42,0,0,1-1.91-2.56,1.86,1.86,0,0,0-1.4-1.49,6.6,6.6,0,0,1-2.54-1.79c-1-1-2.06-2.1-3-2.87a7.94,7.94,0,0,1-1.74-3.51,21.52,21.52,0,0,1-.81-6.91c.55-6.33,3.53-10.7,11.37-16.82,1.23-.92,3.67-1.93,7.53-3.46,2.23-.89,4.42-1.76,5.61-2.4a8.69,8.69,0,0,1,1.87-.76l.37-.13a7.38,7.38,0,0,0,1.08-.42,105.11,105.11,0,0,0,0-20.69c-.11-1.26-.34-2.49-.56-3.81s-.46-2.58-.63-4l-1.28-.1-.29-1.49a19.25,19.25,0,0,1,.11-2.35c.05-.52.13-1.34.14-2h-.22l-.42-1.27a2.78,2.78,0,0,1-.1-1.27l-.71-.48-.17-1.42a5.08,5.08,0,0,1,1.49-2.66c.4-.57.19-2.21-.06-4.26-.44-3.69-1-8.29-1-11.18l-.11-1c-.18-1.78-.41-4.11-.44-5.87a14.82,14.82,0,0,1,.23-1.51,7.36,7.36,0,0,0,.2-1.42,12.66,12.66,0,0,0-.68-2.73,14.91,14.91,0,0,1-.8-3.27,81.88,81.88,0,0,1,0-9.31l.08-3.26c0-.1-.78-2-.78-2a3.28,3.28,0,0,1,.61-3,14.83,14.83,0,0,1-.49-5.06l-.66-3.32a53.33,53.33,0,0,1-1.2-8c.09-2.05.06-4,0-5.85l-.06-2-.09-.19a4.31,4.31,0,0,1,0-2.29l-.17-2.13a113.55,113.55,0,0,1-.27-13.77c1.09-15.54,1.53-33.72-3.47-50.94-1-3,1.71-6.24,4.56-9.7,1-1.17,1.94-2.36,2.76-3.53a22.49,22.49,0,0,1,3.4-3.56,9.6,9.6,0,0,0,1.62-1.64,4.93,4.93,0,0,1,2.1-1.44,7.19,7.19,0,0,1,2.14-.3,4.3,4.3,0,0,0,1.25-.14,2.17,2.17,0,0,0,.82-.54l1.32-1.28.81.69,0-.07,1.55.27c5.48.94,8.15,5.5,7.92,13.58a84,84,0,0,1-2.74,13.65c-.83,3.18-1.67,6.43-2.29,9.87-1.3,7.38-2,14-2.76,22.3-.71,7.07-1.34,13.51-1.43,19.8l4,8.55-2.88-.54-.41,4.19c.23,1.34.58,3.13,1,4.94l.15.61-.43,1.11a8.2,8.2,0,0,1,.4,2.22l-.51,5.21c1,1.1,1.45,3.11,1.38,6.52l-.34,2.78a3.75,3.75,0,0,1,.33.79,6.55,6.55,0,0,1,0,3.49,6,6,0,0,1,1.17,4.35,3.1,3.1,0,0,1-.1.87l.17.63c.48,3.66.86,6.54,1.4,9.4.05.51.11,1,.17,1.44l.52-.17.09,2.71a74.47,74.47,0,0,0,.82,7.55c.76,4.1,1.7,9.12,2.21,13.83l.48-.12,2.55-.36-1.15,11a4.86,4.86,0,0,1,.45,1,23,23,0,0,1,.43,4.59c0,.89,0,1.76.12,2.55.08.59.38,1.95.65,3.25l.34,1.51a3.93,3.93,0,0,1,0,1.8,33.84,33.84,0,0,1,.6,7.12,12,12,0,0,0,.58,4.68c1.52-.42,3.27-.85,4.65-1.19,1-.24,1.75-.42,2-.51l2.06-.28,6.31-.71a3.86,3.86,0,0,1,1.82.2h.49l1.31.39.15,0,.69-.45a9,9,0,0,0,1.66.05c.44,0,.92,0,1.4,0l1.89-.64.23.76,2.6.09a6.92,6.92,0,0,1,1.6.71,29.92,29.92,0,0,1,16.1,3.1,3.28,3.28,0,0,1,2.44,1.3,9.91,9.91,0,0,1,2.52.52,9,9,0,0,1,1.45.86l.8.52c.36,0,1.44.18,2.49.33s2.11.32,2.92.52c2.64.68,5.75,1.63,8.89,2.7l1.22-.11a22,22,0,0,0,2.82-.12l1.7,0a9.76,9.76,0,0,0,1.28,0l2-.6a9.54,9.54,0,0,0,1.74-.72,73.49,73.49,0,0,1,7.29-2.89c5.07-1.69,6.91-1.54,7.95-1.22a20.68,20.68,0,0,1,6.49,4.19,73.21,73.21,0,0,1,5.22,5.86,12.28,12.28,0,0,1,1.2,5.58c0,1.58-.69,3.81-4,4.93a21.83,21.83,0,0,1-4.18.79l-1.07.15a9.31,9.31,0,0,0-1.42.67,11,11,0,0,1-1.48.69,6.56,6.56,0,0,1-2.43.12,5.86,5.86,0,0,1-2,1.33l-.77.25-.76-.32c-.23.09-.48.18-.74.26a29,29,0,0,1-15.65.64l-.47-.11-.37-.3a164.4,164.4,0,0,1-24.08-4c-3.58-.27-11.88-1.92-13.76-3.1a19,19,0,0,0-3.42-1.72,5.45,5.45,0,0,0-1.42-.27c-.56,0-1.15-.12-1.67-.21-6.77-1.58-12.94-2.07-17.48-1.4l-.32.05-1.21-.05c-.72.06-1.63.22-2.54.39s-2.14.39-2.6.44a14.07,14.07,0,0,0-2,.44,4.24,4.24,0,0,0-.65.28c0,.2,0,.4,0,.6a9.58,9.58,0,0,0,0,1.77,15.91,15.91,0,0,0,.56,3.1l.4,1.75v1.72a28,28,0,0,0,.06,4.91,7.79,7.79,0,0,1-.29,3.08l.7.66-.18,1.07a4.47,4.47,0,0,0-.05,1c.26,1,.42,2,.57,2.91a14.68,14.68,0,0,0,1.15,4.36c.18.13,1.33.56,2,.82l1,.41a15.71,15.71,0,0,1,3.16.78c.55,0,1.26.77,1.89,1.42l.82.36,0,.08a2.62,2.62,0,0,1,2.24,1.76,9.94,9.94,0,0,1,.63,3,6.5,6.5,0,0,1-.93,3,18.79,18.79,0,0,1-3.57,3.71l-.92.83c-1.38.64-1.81.87-2.05,1l-.69.69A19.34,19.34,0,0,1,415.22,581.58Zm-24.14-45.65-1.16.51c-.86.37-2.07.81-3.43,1.29-2.34.84-7.85,2.81-8.47,4a19.76,19.76,0,0,0,3.33,7.53,30.69,30.69,0,0,1,2.8,2.72,36.61,36.61,0,0,0,3.54,3.39c3.31-1.7,5.17-6.52,5.41-8.34,0-.23-.1-1.83-.21-3.91-.13-2.45-.3-5.52-.39-8.16l-1.4.31Zm7-104.47h0Z"/><path class="cls-15" d="M518,528.58a73.68,73.68,0,0,0-5-5.61,19.64,19.64,0,0,0-5.66-3.69c-2.62-.81-11.85,3.08-13.64,3.93a21.81,21.81,0,0,1-4.19,1.52,26.12,26.12,0,0,1-3.27.12c-1.93.22-3,.07-4.93.14-3.09-1.06-6.15-2-8.73-2.66-1.63-.41-4.2-.59-5.95-1.07-.8-.46-1.49-1-2.08-1.29a8.08,8.08,0,0,0-2.28-.21c-.78-.34-1.12-1.39-1.88-1.73a1.86,1.86,0,0,1-.86.09,27.93,27.93,0,0,0-15.72-2.81,5.64,5.64,0,0,0-1.17-.78c-1.43-.08-3.06-.06-4.43-.19.7-.24,1.42-.48,2.27-.74l-2.5.72a19.48,19.48,0,0,1-2.9,0c-.63,0-1.65.38-1.89.25-1.1,0-1.94-.54-2.57-.33-2.3.21-7,.77-7.84.86-.82.27-5.74,1.34-8.32,2.2-2.73-4.21-.76-7.61-2.2-13.21-.23-.71.27-1.84.08-2.4-.33-1.63-.89-4-1-4.94-.23-2.08,0-4.71-.45-6.73a5.09,5.09,0,0,0-.63-1.15c.32-3.07.65-6.11,1-9.15-1.1.15-2.07.48-2.6.25-.43-5.33-1.58-11.43-2.37-15.66-.35-2.43-.78-5.66-.84-7.78-.37.12-.75-3.67-.75-3.67-.59-3.15-1-6.31-1.41-9.52-.39.13-2.23.53-2.06-.88,0-.6.06-.43.06-.43a1.5,1.5,0,0,0,1.42.89,3.06,3.06,0,0,0,.52-1.73c.17-.84-.38-3.21-1.71-3.15.92-1.29,1.21-4.33-.54-4.95l-1.06.17c.55,1,1.88,2.3,1.85,2.91.05.79-.25.5-.25.5l-1.45.29.1.93c.18.54,1.21.38,1.46.49-.82,1.45-.4,2.7-.95,3.85a4.89,4.89,0,0,1,0-1.56,4.45,4.45,0,0,1-1.1-.61c.08-1-.54-2.37-.34-3,0-.61.37-.91.28-1.84-.86.85-.38.87-1.44,1.63-.06-.75-.08-1.52-.58-1.75l.86-.68.55.4c-.17-.52-.58-1.16-1.08-1.21a.66.66,0,0,1-.19.64c-.32-.25-.11-.32.05-.59a1.26,1.26,0,0,1,.63-.61c-1.46.12-1.54-.66-1.5-1.26a2.56,2.56,0,0,1,1.15-2.54c.75.93,3.3-.7,3,1.74,0,.79-.94,1.12-1.3,1.43a9.43,9.43,0,0,1,2.18-.73l.2-1.44c0-.6.13-4.16-.85-5.21a8.43,8.43,0,0,0-3.12-1.85l.91-2.5a5.63,5.63,0,0,0,1.83,1.32l.36-3.63a11.58,11.58,0,0,0-.5-2.23l.43-1.15a52.35,52.35,0,0,1-1.05-5.62l.44-4.31a15.48,15.48,0,0,1-.22-1.91,1.89,1.89,0,0,1-.84-.35c0-.2,0-.43,0-.65a1,1,0,0,1,.46-.22,3.08,3.08,0,0,0,2,1.28l-1.61-3.43-.91.33a204.37,204.37,0,0,1,1.43-22.71c.69-7.66,1.4-14.61,2.79-22.48,1.49-8.31,4.3-15.58,5-23.22.15-5.44-.88-10.61-6.23-11.53l-.49,1.11L400.31,320c-2.32,2.25-4.33.34-6.08,2.15-1.3,1.78-2.78,2.28-5,5.18-3,4.23-8,8.73-7,11.49,4.82,16.59,4.78,34,3.54,51.63a138.56,138.56,0,0,0,.42,16.11,2.81,2.81,0,0,0-.09,1.32,1,1,0,0,0,.18.29c0,.73.05,1.49.07,2.24,0,.08,0,.12,0,.16v0c.07,1.94.1,3.9,0,5.93s1,6.78,1.87,11.42a26.08,26.08,0,0,0,.08,4.32c.12.36.55,1,.47,1.41a1.68,1.68,0,0,0-.79,1.63,12.77,12.77,0,0,1,.89,2.66c-.05,3.74-.37,8.77,0,12.36.17,1.9,1.24,3.72,1.41,5.62.29.87-.24,2.45-.34,3.46,0,2.14.38,5.16.54,6.89,0,4.69,1.6,14.76,1.43,15.6,0,.6-1.63,1.72-1.87,2.39,0,.76.33.28.33.28,1.24-.24.37,1.83.55,2.36,1.37.12.39,4.39.49,6.12.49,0,1.13,0,1.44.3.29,3.45,1.08,6.31,1.31,9a101.94,101.94,0,0,1,0,20.6,2,2,0,0,1-1,2.11c-1,.52-2.63.87-3.32,1.3-2.81,1.53-10.94,4.24-12.86,5.68-7.89,6.17-10.14,10-10.59,15.3a18.36,18.36,0,0,0,.44,5.35c.41,1.24.7,2.71,1.39,3.44,1.21,1,2.59,2.48,3.3,3.21.74,1,2.88,1.43,3.39,2.22.75.94,1.06,2.6,1.9,3.1,3.58,2.14,7.52,4.74,11,6.37,1.39.9,10.64.33,11.79,1.17a9.42,9.42,0,0,1,2.27,4.12,3.65,3.65,0,0,1,1.09.62c.05.16,0,.61,0,.77,1.09.6,2.3,1.58,3.13,2.09a21,21,0,0,0,4,.83,18.64,18.64,0,0,0,2.3-.39,10.14,10.14,0,0,0,2.26-.54,17.86,17.86,0,0,0,5.07-3.27,6.63,6.63,0,0,1,1-.94,9.14,9.14,0,0,1,1.74-.78c1.67-1.53,3.57-3.14,4.12-4.1a4.67,4.67,0,0,0,.64-2,7.92,7.92,0,0,0-.53-2.38c-.23-.7-1.43-.3-1.49-.48-.76-.34-1.7-1.8-2.43-2-.74-.34-2.58-.5-3.08-.74-1.55-.64-3.5-1.18-4.07-2.17-1.22-2.34-1.22-5.07-1.86-7.62a5.12,5.12,0,0,1,0-2,3.38,3.38,0,0,0-1.06-.61,5.94,5.94,0,0,0,.84-3.45,38.74,38.74,0,0,1-.05-6.65,35.14,35.14,0,0,1-1-5c-.19-1.31,0-2.55-.09-3.69a8.53,8.53,0,0,1,4.48-1.69c.87-.09,4-.73,4.81-.82.57-.19,1.16.2,1.77,0,5.27-.78,11.88,0,18.13,1.41a27.07,27.07,0,0,1,3.23.49,20.63,20.63,0,0,1,4,2c1.34.83,8.9,2.5,13.23,2.86a146,146,0,0,0,24.15,3.76l.7.59a28.05,28.05,0,0,0,15.94-1,1.47,1.47,0,0,1,.83.18c.82-.24,1.26-1.23,2.1-1.48a13,13,0,0,0,2.26.05c1.1-.32,2.63-1.67,4.48-1.63,3.17-.36,6.42-.89,6.41-3.81a9.87,9.87,0,0,0-.79-4.25m-123,18.7c-.34,2.59-2.91,9.13-7.71,10.37-3.1-2.14-5.33-5.28-7.5-7-1.8-1.86-4.26-8.07-3.85-9.24.21-2.9,9.62-5.37,13.07-6.88,0,0,0-1,1.54-1.22l3.81-.91c.06,4.9.68,13.83.64,14.87"/><path class="cls-15" d="M502.83,583.74a10.05,10.05,0,0,1-9.29-1.82c-2.12-1.71-3.12-4-2.66-6.11,1.6-6.84,10-17.22,18.09-19.91l9.79-5.23.93.48c.45.15,2-.56,2.54-.78,1.13-.49,2.67-1.18,3.79.15s.09,3.1-1,4.72c-.63.93-1.51,2.34-2.58,4-6.93,11-14.07,21.83-18.68,24.09l-.88-1.79.82,1.81C503.42,583.52,503.13,583.64,502.83,583.74ZM519,555.13l-8.41,4.47c-6.88,2.32-14.41,11.45-15.74,17.1-.11.53.39,1.38,1.25,2.08a5.88,5.88,0,0,0,6,.92h0c4-2.05,12.74-15.91,17-22.59l1.21-1.93A4.61,4.61,0,0,1,519,555.13Z"/><path class="cls-15" d="M502.89,581.54c-4.93,2.23-10.77-1.89-10-5.3,1.39-6,9.28-15.93,16.75-18.42l9.16-4.87c2.73,1.39,8.11-4.14,4.58,1.17-3.42,5.12-15,24.74-20.46,27.43"/><path class="cls-15" d="M394.74,712.24a11,11,0,0,1-3.41.56,8.81,8.81,0,0,1-7-3c-3.12-3.57-3.57-9.26-3-13a27.16,27.16,0,0,0-.05-5.63c-.24-3.3-.5-6.71,1.39-10.62a6.79,6.79,0,0,1-.35-1.07,7,7,0,0,1-.2-4.71c1.17-1.79,1.22-2.16,1.13-4.5l0-1.69c.08-5.77.12-9.58-4-13.16a2.36,2.36,0,0,0-2.21-.86c-1.39.14-1.4.14-1.68,1.42a10.42,10.42,0,0,1-.51,1.78,31.61,31.61,0,0,0-2.26,6.69,38.61,38.61,0,0,1-2.26,7c-.85,1.66-1.64,3.26-2.44,4.88-4.91,9.91-10,20.16-19.26,29.1l-1.26,1.21-1.84-1.07c-1.3-1-3.15-5.59-2-7.44,10.62-14.26,14-24.92,16.57-39.67.91-4,.41-5.88-.75-7.75a4.53,4.53,0,0,0-1.8-1.44c-1.38-.79-3.45-2-3.53-4.53-.64-3,2.94-5.87,6.41-8.66.79-.63,1.55-1.25,2.22-1.84a23.82,23.82,0,0,0,2.3-2.72c2-2.63,4.47-5.89,8.6-6.53a4.64,4.64,0,0,1,3.62.88c1.43,1.21,1.55,3.07,1.66,4.71.19,2.85.28,4.28,4.33,4.26,6.84,0,12.7,2.43,16.08,6.51a13.82,13.82,0,0,1,3.12,10.35h.05l0,1.88c.1,4.9-1.07,10.21-2.2,15.34-2.27,10.3-4.41,20,3,26.15a6.66,6.66,0,0,0,.83.44,4,4,0,0,1,2.48,2.37,3.07,3.07,0,0,1-.5,2.56l-.67,1.07C402.84,705.57,399.72,710.58,394.74,712.24Zm-20-61.42a7.92,7.92,0,0,1,1.82-.36,6.24,6.24,0,0,1,5.43,1.91c5.48,4.71,5.41,10,5.32,16.18l0,1.58c.1,2.73,0,4.1-1.63,6.45a17.51,17.51,0,0,1,.53,1.67,5.38,5.38,0,0,1,.12,4c-1.42,2.93-1.22,5.53-1,8.56a31.1,31.1,0,0,1,0,6.48c-.46,3.11,0,7.48,2,9.84a4.81,4.81,0,0,0,3.9,1.66c4.88-.06,7.84-4.86,10.72-9.49l.2-.31a10.7,10.7,0,0,1-1.32-.73l1.13-1.67-1.27,1.54c-9.37-7.7-6.85-19.11-4.42-30.16a78.32,78.32,0,0,0,2.08-12.53l-2.36-.13,2.23-3.33a10.06,10.06,0,0,0-2.12-8.13c-2.62-3.16-7.36-5-13-5-7.81,0-8.16-5.22-8.35-8a8.4,8.4,0,0,0-.26-1.88h0s-.21,0-.49,0c-2.36.35-4.14,2.71-5.9,5a27.49,27.49,0,0,1-2.78,3.24c-.76.67-1.57,1.33-2.4,2-1.63,1.31-5,4-4.95,5.06,0,.63.84,1.08,1.53,1.48a7.59,7.59,0,0,1,3.32,3c1.85,3,2.22,6,1.19,10.52-2.62,15.1-6.11,26.16-16.86,40.7a6.76,6.76,0,0,0,.23.95c7.78-8.13,12.37-17.39,16.82-26.37.8-1.62,1.6-3.24,2.42-4.83a35.41,35.41,0,0,0,2-6.22,34.5,34.5,0,0,1,2.5-7.37,8.29,8.29,0,0,0,.24-1A4.9,4.9,0,0,1,374.76,650.82Z"/><path class="cls-15" d="M402,696.55c1.45,1,3.37,1.18,2.39,2.67-3.21,5.1-6.71,11.5-13.1,11.56-7.12.1-8.78-8.3-8-13.78.72-5.7-1.51-10.16,1.16-15.66.67-1.4-1.29-3.89-.49-5.91,1.29-1.88,1.37-2.75,1.27-5.32,0-6.67.59-11.74-4.71-16.31a4.25,4.25,0,0,0-3.81-1.33c-3.66.35-3,2.43-3.78,4.44-2.27,4.5-2.33,8.84-4.49,13.59-5.68,11.17-10.74,23.23-21.26,33.36-.82.87-2.45-4-2-4.77,11.18-15,14.41-26.28,16.86-40.39.91-4.05.6-6.53-1-9.16-1.14-2.22-4.94-2.41-5-5-.56-2.69,4.75-6.1,7.95-8.91,2.86-2.68,5.2-8.06,9.85-8.77,6.21-.64-1.2,9.91,9.33,9.87,11,.09,18.69,6.46,17,16l-.49.75.76,0c.27,14.34-10.89,32.78,1.57,43"/><path class="cls-15" d="M443,703.68c-4.65,1.55-8.71,1.71-11.73.47-12.19-4.83-13.51-14.53-14.78-23.91-.3-2.23-.61-4.49-1.07-6.73-1.92-9.59-.87-11.86,1.79-14.42a7.39,7.39,0,0,0,2.19-3.27c5.48-15.8,8.14-18.36,18-27.9,1.82-1.77,3.92-3.78,6.34-6.19a7,7,0,0,1,2.74-1.71c6.58-2.19,15.19,5.52,16.8,10.37,5,14,3.59,22.53,1.71,34.33-.55,3.45-1.16,7.23-1.67,11.57-.41,4.67-2.25,7.69-4,10.61a41.88,41.88,0,0,0-2.34,4.21A26.72,26.72,0,0,1,444.9,703C444.2,703.26,443.59,703.48,443,703.68Zm-4.49-53c-1.78.59-2.87,1.36-3.33,2.35-1,2,.43,5.65,1.9,9.49l.35.9c1.33,3.12,1.44,6.78,1.54,10,.1,3.41.2,6.64,1.73,8,.89.83,2.38,1.17,4.55,1.07a3.83,3.83,0,0,0,.88-.16c.9-.3,1.13-1,1.47-3.42a12.94,12.94,0,0,1,1.48-5.07c3.57-6.61,5.51-16.35,2-21.19-1.92-2.64-5.41-3.51-10.36-2.59A17.79,17.79,0,0,0,438.5,650.7Z"/><path class="cls-15" d="M450.8,675c-2.19,3.62,0,9.22-5.46,9.62-12.22.58-6.28-12.07-9.81-20.42-2.93-7.66-5.8-13.93,4.79-16,17.74-3.3,16.75,15.2,10.48,26.82M461.37,631c-1.65-4.94-11.41-12.64-16.21-7.87-15.25,15.17-17.53,15.08-23.87,33.35-2.33,6.55-6.77,2.26-3.89,16.6,2.36,11.59.78,23.69,14.64,29.17,3.07,1.27,7.39.7,12-1.15a24.94,24.94,0,0,0,11.07-10.88c2.41-5.15,5.62-7.94,6.17-14.2,2.28-19.2,6.25-27.46.06-45"/><path class="cls-15" d="M513.53,674.34a20.64,20.64,0,0,1-8,1.08c-6.72-.39-8.87-6.18-10.29-10-.55-1.49-1.39-3.74-2-3.84-1.13-.18-5,1.88-16.9,17.33-1.4,1.8-2.95,3.83-4.9,2.69-2.2-1.31-1.53-3,5.24-18.33,2.71-6.16,5.53-12.53,6.8-16.36a14.21,14.21,0,0,1,1.59-3,7.63,7.63,0,0,0,1.57-3.6,51.91,51.91,0,0,1,2.05-9.85c.44-1.53.92-3.18,1.39-5.2,1.86-7.77,10.42-15.43,17.58-19.27l1.1-.59,4.35,3.08,0,1a99,99,0,0,1-.7,11.91c-.72,7.35-1.4,14.29.72,20.63l3.55,10.64c.41,1.67,1.08,2.73,1.94,3.16a2.84,2.84,0,0,0,2.46-.08c2.38-.93,3.4-2.66,4.68-4.86a17.63,17.63,0,0,1,5.81-6.66,2.79,2.79,0,0,1,3,0c1.75,1.17,2.23,4.26,2,6l-4-.53a4.44,4.44,0,0,0-.06-1.2,16.62,16.62,0,0,0-3.28,4.41c-1.41,2.41-3,5.14-6.67,6.56a7,7,0,0,1-5.78-.06,8.12,8.12,0,0,1-4-5.65l-3.5-10.48c-2.39-7.17-1.64-14.86-.91-22.3.35-3.62.69-7.06.69-10.43l-.61-.43c-7.11,4.13-13.24,10.86-14.48,16-.49,2.08-1,3.79-1.43,5.37a49.62,49.62,0,0,0-1.92,9,11,11,0,0,1-2.19,5.48,10.68,10.68,0,0,0-1.16,2.09c-1.33,4-4.18,10.46-6.94,16.7-.77,1.75-1.6,3.62-2.39,5.43,9.11-11.11,12.87-13.2,15.87-12.75s4.11,3.49,5.2,6.43c1.61,4.32,2.94,7.16,6.75,7.39,7.83.54,16.11-4.84,24.7-15.94a14.61,14.61,0,0,0,2.11-5.69l4,.52a18.33,18.33,0,0,1-2.91,7.63C526.93,666.63,520.18,672.12,513.53,674.34Z"/><path class="cls-15" d="M534.58,650a16.42,16.42,0,0,1-2.52,6.67c-6.31,8.16-15.62,17.44-26.4,16.72-14.77-.86-1.91-33.38-31,4.26-8.15,10.51,7.09-19.41,10.66-30.13.76-2.25,3.12-4.21,3.26-7.13.63-6,2-8.75,3.38-14.68,1.59-6.62,9.26-14,16.58-18l2.49,1.77c.23,10.9-3.34,22.75.12,33.14l3.55,10.64c1,4,3.79,5.68,7.09,4.3,5.68-2.19,5.21-8.09,10.81-11.68,1.27-.74,2.17,2.22,1.93,4.07"/><path class="cls-15" d="M526.66,723.61a5.56,5.56,0,0,1-3.89-.18,2.52,2.52,0,0,0-2.17-.1l-1.69.74-.54-1-.06.07-1.33-.79c-7.18-4.25-3.71-12.72-2.55-15.5a82,82,0,0,1,7.39-11.74c1.9-2.67,3.88-5.44,5.66-8.42,3.6-6,6.68-11.75,10.59-19.85l.7-1.4c5.54-11.16,10.77-21.7,12.21-33.21l.09-.73,1.45-1.35a37.69,37.69,0,0,1,2.26-6.93c2.36-5.85,3.49-9.33-.64-12.8-4.8-4-6.34-9.86-7.69-15l-.24-.94-3.6-4.1L534.69,567A18.47,18.47,0,0,1,536,556.83a12,12,0,0,0,1-3.6,3.23,3.23,0,0,0,0-1,3.09,3.09,0,0,1,1.34-3.14,6.1,6.1,0,0,0,1.22-2c.67-1.51,2.25-5,6-3.44,5.24,2.51,5,8.44,4.73,13.2,0,.45-.05.9-.06,1.34a2.54,2.54,0,0,1,1.66,2.11,4.4,4.4,0,0,0,.27.76,8.93,8.93,0,0,1,.38,1,8.76,8.76,0,0,1,.23,2.15,5,5,0,0,0,.06.88c7.42,1.9,8.2,4.57,8.53,8.41l.12,1.14c.65,8.1,2.77,13.93,6.81,18.8a14.12,14.12,0,0,0,2.81-4.89,37.35,37.35,0,0,1,1.59-3.46c2-3.41,3.48-6.45,5.06-9.67,1.07-2.19,2.14-4.39,3.38-6.69,1.59-3.15,3.18-6.72,4.84-10.43,7.27-16.29,15.52-34.81,31.65-38.17,4-.85,6.2.78,7.34,2.29,4,5.34.82,18-2.13,23.64-6.8,12.41-14.79,22-23.79,28.69a31.64,31.64,0,0,1-4.32,2.7c-1.78,1-3.32,1.81-4.09,2.94a130,130,0,0,0-7.64,16.61,32.27,32.27,0,0,1-1.75,3.55c-1,1.81-2.34,4.29-1.88,5.32.22.51,1.14,1,2.5,1.31,2.56.69,8.69,2.56,12,5.39,2.87,2.62,6.7,3,10.77,3.41a47.28,47.28,0,0,1,6.12.89c.06,0,.45-.26.71-.41a6.08,6.08,0,0,1,3.17-1.1,5.66,5.66,0,0,0,2-.75,6.47,6.47,0,0,1,3.23-1,29.53,29.53,0,0,0,5.92-1.79C637.28,606.5,646.08,597.49,648,589a32.93,32.93,0,0,0,.85-3.39,41.65,41.65,0,0,1,1.38-5.08c.16-.42-.31-1.51-.58-2.16-.52-1.2-1.17-2.71-.33-4.09a3.23,3.23,0,0,1,2.77-1.47,6,6,0,0,1,5.54,2c2.71,3.27,1.39,9.29-.25,14.75l-1.77-.53,1.76.61c-3,8.6-6.39,18.35-15.26,26.18-6.38,5.59-19.18,14.94-33.25,15a11.82,11.82,0,0,0-3.58.25l-.76.15a65.7,65.7,0,0,1-16.32-.85,89,89,0,0,0-8.85-1l-8-1.77a48.64,48.64,0,0,0-4.7,9.62,117.31,117.31,0,0,0-4.13,11.74,115.45,115.45,0,0,1-4.65,12.92c-7.24,15.61-13.83,31-15.22,47.95-.17,3.67-2.36,6.76-7.1,10a27.75,27.75,0,0,1-5.42,2.42,15.11,15.11,0,0,0-2.83,1.19C527.11,723.44,526.88,723.53,526.66,723.61Zm-5.86-4.49a7,7,0,0,1,3.31.49c.84.3,1,.35,1.3.18a17.1,17.1,0,0,1,3.41-1.46,23.64,23.64,0,0,0,4.6-2c4.5-3,5.18-5.22,5.25-6.8,1.44-17.67,8.19-33.43,15.57-49.37a107.58,107.58,0,0,0,4.47-12.46,123.09,123.09,0,0,1,4.25-12,46.67,46.67,0,0,1,6-11.57l.79-1,10.19,2.3a84.62,84.62,0,0,1,8.9,1c4.89.7,9.5,1.36,15.21.84l.54-.11a15.6,15.6,0,0,1,4.44-.32c12.66,0,24.54-8.75,30.48-14,8-7.09,11.12-15.88,14.09-24.38h0c1.79-6,2.13-9.66,1-11a1.51,1.51,0,0,0-1.13-.52c.59,1.37,1.36,3.23.63,5.14a34.55,34.55,0,0,0-1.2,4.52c-.3,1.32-.58,2.56-.91,3.6-2.67,11.56-14.46,20.79-24.59,25.52a30.55,30.55,0,0,1-7.37,2.14,3.69,3.69,0,0,0-1.63.53,9.16,9.16,0,0,1-3.69,1.2,2.5,2.5,0,0,0-1.23.51,5,5,0,0,1-3.66.91,45.15,45.15,0,0,0-5.68-.82c-4.53-.45-9.22-.92-13.05-4.41-1.78-1.55-5.64-3.25-10.25-4.5-2.7-.63-4.42-1.81-5.21-3.58-1.27-2.85.48-6.06,2-8.9a28.42,28.42,0,0,0,1.51-3,132.81,132.81,0,0,1,8-17.28c1.43-2.12,3.45-3.22,5.6-4.4a30.24,30.24,0,0,0,3.83-2.37c8.55-6.32,16.17-15.53,22.66-27.38,2.74-5.22,5.05-15.88,2.47-19.29-.26-.35-1-1.27-3.28-.78-14.09,2.92-21.92,20.45-28.8,35.86-1.69,3.78-3.31,7.41-4.94,10.65-1.24,2.3-2.29,4.46-3.35,6.62-1.53,3.13-3.12,6.38-5.15,9.86a30.2,30.2,0,0,0-1.38,3c-1.13,2.71-2.3,5.53-5.63,7.82l-1.48,1-1.76-2c-5.11-5.72-7.75-12.47-8.52-21.87l-.12-1.21c-.21-2.51-.3-3.56-5.56-5-3-.78-3-3.34-3-4.56a5.77,5.77,0,0,0-.1-1.18,5.24,5.24,0,0,0-.2-.51c-.11-.28-.25-.6-.35-.94-1.68-.7-2-1.76-1.92-2.58s0-1.59.09-2.44c.23-4.84.19-8.11-2.37-9.33a13.27,13.27,0,0,1-.59,1.41,9,9,0,0,1-2.19,3.37,6.39,6.39,0,0,1,0,1.35,13.93,13.93,0,0,1-1.17,4.7c-.85,2.35-1.72,4.77-1.2,7.81l7.7,22.65,3.55,3.79.51,1.93c1.32,5,2.56,9.78,6.38,13,6.57,5.53,3.93,12.12,1.79,17.41a31,31,0,0,0-2.13,6.71l-.1.7-1.41,1.32c-1.64,11.9-6.92,22.53-12.5,33.77l-.69,1.39c-2.89,6-6.21,12.59-10.75,20.15-1.86,3.11-3.89,6-5.84,8.69a78.89,78.89,0,0,0-7,11c-2.25,5.49-1.6,8-.26,9.44l1.5-1.47Zm29.31-159.93v0Z"/><path class="cls-15" d="M655.5,588.93c-3.08,8.83-6.29,17.92-14.68,25.33-9.06,7.93-20.64,14.45-31.93,14.46a15.51,15.51,0,0,0-4.69.43c-9.56.87-16.36-1.48-24.73-1.86l-8.94-2a45.8,45.8,0,0,0-5.71,11.14c-3.59,8.4-5.06,16.39-8.74,24.57-7.44,16-14,31.41-15.4,48.62-.13,2.95-1.91,5.54-6.21,8.43-3.12,1.89-6.36,2.39-8.22,3.59-2.3,1-3.48-1.44-6.45-.15l-.93-1.69-.86.84c-4.69-2.77-3.78-8-1.72-13,3.36-6.89,8.6-12.67,12.93-19.89,4.12-6.86,7.34-13.12,10.67-20C545.72,656,551.44,644.84,553,632.5l1.42-1.33c1.13-7.88,8.88-15.68,1-22.27-4.71-3.94-5.92-9.88-7.41-15.44l-3.51-3.73-7.91-23.38c-1-5.83,2.37-9.69,2.35-13.13.22-1.55-.52-1.57.64-2.53,2.1-1.59,2-6.45,5.07-5.15,4.68,2.25,3.51,8.52,3.42,13.71-.05.79,1.63.56,1.7,1.29a13.17,13.17,0,0,0,.7,2.12c.48,1.78-.48,3.72,1.72,4.3,7.49,2.07,6.72,4.4,7.17,8,.74,9,3.24,15.37,8,20.71l.58.65c4-2.75,4.31-6.34,6.4-10.21,3.36-5.74,5.44-10.75,8.45-16.36,8.41-16.67,16.38-43.63,35.12-47.58,10.5-2.22,6.67,16,3,23-5.61,10.26-13.25,20.66-23.2,28-3.29,2.56-7.11,3.55-8.88,6.13A135.14,135.14,0,0,0,581,596.38c-1.81,4.68-7.83,10.92.31,12.83,3.35.91,8.45,2.67,11.1,5,4.84,4.42,11.64,3.31,17.75,4.74,1.63.32,2.56-1.43,4.37-1.46,2.21-.14,3.56-1.76,5.12-1.71a28.44,28.44,0,0,0,6.84-2c11.08-5.17,21.21-14.31,23.53-24.32.72-2.24,1.16-5.57,2.14-8.22s-3.2-6.16.12-6.4c7.62-.78,4.45,10,3.21,14.11"/><path class="cls-15" d="M613.33,640.54a10,10,0,0,1,1.1-3.76,10.47,10.47,0,0,1,5.94-5.06,10.16,10.16,0,0,1,10.87,2.85,9.89,9.89,0,0,1,2,3.54,10.07,10.07,0,0,1,.51,4.13,10.36,10.36,0,0,1-1.07,3.78,10.11,10.11,0,0,1-2.4,3.06,10.57,10.57,0,0,1-3.52,2,10.21,10.21,0,0,1-4,.53,9.71,9.71,0,0,1-3.78-1,10.5,10.5,0,0,1-3.15-2.37,10.42,10.42,0,0,1-2.55-7.68m4,6.57a8.41,8.41,0,0,0,2.56,2.07,8.2,8.2,0,0,0,6.49.47,8.15,8.15,0,0,0,2.93-1.67A8.27,8.27,0,0,0,632,642.2a9.33,9.33,0,0,0-.49-3.5,9,9,0,0,0-1.69-3,8.41,8.41,0,0,0-12-.83,8.38,8.38,0,0,0-1.95,2.58,8.26,8.26,0,0,0-.82,3.16,9,9,0,0,0,.47,3.45,9.14,9.14,0,0,0,1.72,3.09m5-11.58a4.94,4.94,0,0,1,3.26-.19,3.14,3.14,0,0,1,1.78,2.11,2.89,2.89,0,0,1-.11,2.52,4,4,0,0,1-1.84,1.55l4.9,3.92-1.89.63-4.7-3.84-1.86.62,1.62,4.86-1.75.59L618,637l4.37-1.46Zm.9,5.28c.39-.13.76-.26,1.11-.41a2.79,2.79,0,0,0,.87-.54,1.6,1.6,0,0,0,.48-.77,2,2,0,0,0-.1-1.13,1.78,1.78,0,0,0-.53-.83,1.5,1.5,0,0,0-.74-.33,3,3,0,0,0-.89,0,6.73,6.73,0,0,0-.91.23l-2.33.78,1.2,3.6,1.84-.62Z"/><path class="cls-15" d="M307.66,816.74a83.27,83.27,0,0,1-14.38,1.34c-2.95,0-8.13-1.58-12.75-3.1a14.08,14.08,0,0,1-3.75-3.05l-1-1c-.32-.31-.75-.66-1.22-1.06a22.29,22.29,0,0,1-3.46-3.38,44.83,44.83,0,0,1-9.75-20.16,206,206,0,0,1-4.64-32.4l-1-16.32a23,23,0,0,1,.19-2.38,30.19,30.19,0,0,0,.29-4.73c-1.26-9,.23-20.5,1.32-28.88.26-2,.49-3.81.66-5.34a18.32,18.32,0,0,0,0-3.64c0-.62-.07-1.22-.07-1.74a19.39,19.39,0,0,1,.64-2.69c.26-.9.55-1.88.71-2.64a20.6,20.6,0,0,0,.05-2.4,17,17,0,0,1,.33-4.39c.31-1.13.63-2.19,1-3.24a43.63,43.63,0,0,0,1.4-5.36c0-.94.14-3.12.27-5l.25-1.58a31,31,0,0,0,1.91-7.71,35.77,35.77,0,0,1,2.45-9.42,6.47,6.47,0,0,1,.05-3.46,61.3,61.3,0,0,0,2-10.8,61.23,61.23,0,0,1,1.77-10.06,7,7,0,0,0,0-1.56,10.89,10.89,0,0,1,.06-3.77c1.46-6,2.43-11,3.29-15.38a127.23,127.23,0,0,1,3.42-14.7,23.59,23.59,0,0,0,.68-4.26,34.68,34.68,0,0,1,.81-5.3c.32-1.06.77-2.18,1.26-3.37a37.27,37.27,0,0,0,1.53-4.16c2.91-10.13,6-19.18,15.05-27.6a8.88,8.88,0,0,0,1.24-1.45,14.57,14.57,0,0,1,2.24-2.57A44,44,0,0,1,308,534c4.37-1.46,10.87-.47,13.93.5a12.17,12.17,0,0,0,2.34.48,21.69,21.69,0,0,1,3.36.68,4.91,4.91,0,0,1,1.61,1.19,3.28,3.28,0,0,0,.5.46c3.15.25,6.87,2.16,10.65,5.57a2.53,2.53,0,0,0,1.19.66,4.86,4.86,0,0,1,1.82-1.12c3.53-1.18,7.3,1.22,8.75,5.57a15.36,15.36,0,0,1,.1,4.44,12.7,12.7,0,0,0,.08,4,3.37,3.37,0,0,1,1.57,2.67,88.22,88.22,0,0,1,1.58,10.12,41.29,41.29,0,0,1-.72,6.44,3.46,3.46,0,0,1,.2,3.56,16.87,16.87,0,0,1-.76,1.8A15.25,15.25,0,0,0,353,584.3a37.32,37.32,0,0,0-.14,7.36l.1,2.43a22.38,22.38,0,0,0,1.39,5.49l.1.53a16.33,16.33,0,0,1-.4,3.56l-.14.83a26.64,26.64,0,0,0,.28,4.76c.43,3.79,1,8.52-1.4,14.11a9.84,9.84,0,0,1-2.61,3.12c-.33.3-.65.6-.92.87-.64.72-1.2,1.4-1.7,2a13.45,13.45,0,0,1-7.2,5.21c-1.53.52-6.69-.47-8.94-2a3.58,3.58,0,0,1-1.81-2.73l-1.24-28.34a3.67,3.67,0,0,1,.53-2.23c0-3,.1-8,.21-12.46.08-3.81.18-8.13.13-8.73,0-1.39-.62-5.07-1.43-6.09a7.72,7.72,0,0,0-1.82-1.36l-.87-.61a7.47,7.47,0,0,1-1.22-1.93,3.68,3.68,0,0,0-.7-1.14l-.48-.38-.19-.57a3.7,3.7,0,0,1-.19-1,34.89,34.89,0,0,1-4.84-1.95c-2.57-1.19-4.79-2.22-6.54-1.64-3.77,1.26-5.31,8.39-6,11.43-.14.67-.26,1.19-.35,1.53a12.68,12.68,0,0,1-1.22,2.21,12.47,12.47,0,0,0-1,1.76,55.53,55.53,0,0,0-1.56,10.6A69.91,69.91,0,0,1,299,601.54a9.7,9.7,0,0,1-1.26,2.29,6.7,6.7,0,0,0-.93,1.57,7.58,7.58,0,0,0-.09,1.58,13.2,13.2,0,0,1-.33,3.43c-1.57,5.77-3,13.65-4.3,21.27-1.61,9.05-3.26,18.41-5.29,24.89a4.56,4.56,0,0,1-.9,1.58,7,7,0,0,0-.74,1.14,15.1,15.1,0,0,0-.53,3.85,18.59,18.59,0,0,1-.68,4.7,6.56,6.56,0,0,1-.9,1.39,5.44,5.44,0,0,0-.8,1.11s.14.65.23,1a7.65,7.65,0,0,1,.16,3.38,24.84,24.84,0,0,1-1.8,3.25,22.85,22.85,0,0,0-1.53,2.63,43.69,43.69,0,0,0-.24,5.2,25.11,25.11,0,0,1-.54,6c-.15.56-.32,2.39-.46,3.85s-.28,2.9-.44,3.9c-.12.67-.17,1.18-.22,1.66a13.75,13.75,0,0,1-.6,3.08,7,7,0,0,1,.6,1.28,22.82,22.82,0,0,1,0,7.82l-.12,1.1a5.31,5.31,0,0,0,.08,1.42,13.35,13.35,0,0,1,.16,2.38,17,17,0,0,1-1.41,4.4l.21.75a7.61,7.61,0,0,1,.43,3,11,11,0,0,1-.58,1.92,6.6,6.6,0,0,0-.4,1.23c0,.09.25.5.47,1a12.45,12.45,0,0,1,1.28,4.25,156.87,156.87,0,0,1,0,16.23c-.05,1.66-.1,2.85-.08,3.23a5.81,5.81,0,0,0,.3,1.1,13.21,13.21,0,0,1,.59,2.23c.12,1.36.16,2.86.2,4.4a39.44,39.44,0,0,0,.45,6.23c.09.25.33.79.58,1.38.36.83.75,1.73,1,2.61a8.19,8.19,0,0,1,.27,2.07,8.63,8.63,0,0,0,.2,1.8A26.91,26.91,0,0,1,282.63,787c-.05,3.75-.08,6,3.53,9.07l.46.56a3.89,3.89,0,0,0,.71.94c2.29,2,7.91,3.76,11.73,3.31a26.62,26.62,0,0,0,5.87-.83l5-1.66c3.22-1,8.7-2.78,12.18-6.39a131.22,131.22,0,0,0,16.22-18.68,133.86,133.86,0,0,0,8.72-13.64,19.71,19.71,0,0,1,3.29-4,14.83,14.83,0,0,0,3.7-5.14,8.59,8.59,0,0,0,.25-1.47,27.72,27.72,0,0,1,.71-3.76,4.14,4.14,0,0,1,2.05-2.16c.17-.1.42-.25.62-.39l-.18-.41a4.85,4.85,0,0,1-.64-2.55l.18-1.23,1.1-.37c-.16,0,0-.12.26-.31a13.51,13.51,0,0,1,3.67-2.46,6.14,6.14,0,0,1,5.13.94,4.81,4.81,0,0,1,2.36,3.17c.2,3.26-2.17,8.06-4.83,13.13a25.92,25.92,0,0,0-1.19,2.39l-1.79-.58,1.74.68-.29.82a23.7,23.7,0,0,1-2.29,5.06c-6.52,11.24-12.82,20.18-19.19,27.23a14.5,14.5,0,0,0-1.71,2.34,21.3,21.3,0,0,1-2.77,3.67c-1.38,1.26-2.87,2.7-4.42,4.22-4.8,4.66-10.22,9.94-14.66,12a13.16,13.16,0,0,0-1.83,1.48,31.25,31.25,0,0,1-2.86,2.35A28.54,28.54,0,0,1,307.66,816.74ZM266.53,665l0,.51c-.12,1.76-.27,3.83-.29,5a43.09,43.09,0,0,1-1.55,6.19c-.3,1-.61,2-.9,3.07a13.67,13.67,0,0,0-.2,3.32,23.49,23.49,0,0,1-.11,3.14c-.2,1-.52,2.08-.81,3.09-.22.77-.44,1.48-.52,1.91a7.12,7.12,0,0,1,.11,1.16,20,20,0,0,1-.07,4.46c-.14,1.4-.38,3.24-.64,5.27-1.06,8.15-2.51,19.31-1.32,27.88a29.92,29.92,0,0,1-.29,5.66c-.08.79-.17,1.43-.16,1.74l1,16.29a202.16,202.16,0,0,0,4.55,31.77,41.15,41.15,0,0,0,9,18.5,20.77,20.77,0,0,0,2.93,2.8c.52.45,1,.86,1.36,1.19s.71.69,1.11,1.1a21.82,21.82,0,0,0,2.38,2.17c2.67.86,8.7,2.84,11.33,2.81a86.24,86.24,0,0,0,13.08-1.15,25.87,25.87,0,0,0,4.81-2c.76-.54,1.63-1.32,2.42-2a10.11,10.11,0,0,1,3-2.21c3.61-1.68,9-6.93,13.33-11.14,1.59-1.55,3.11-3,4.45-4.25a17.81,17.81,0,0,0,2.16-2.93,18.11,18.11,0,0,1,2.17-2.93c6.12-6.77,12.26-15.49,18.7-26.58a21.05,21.05,0,0,0,1.91-4.27l.34-.95h0a30.33,30.33,0,0,1,1.41-2.9c1.47-2.79,4.52-8.61,4.38-10.92-.19,0-1.6-.8-2.18-.61a14.19,14.19,0,0,0-2.12,1.54,4.65,4.65,0,0,1,.64,2.87,5.8,5.8,0,0,1-2.73,2.94c-.12.08-.25.14-.35.21a22.29,22.29,0,0,0-.47,2.77,10.93,10.93,0,0,1-.51,2.45,18.51,18.51,0,0,1-4.58,6.47,16.49,16.49,0,0,0-2.67,3.23,139.59,139.59,0,0,1-8.94,14A134.54,134.54,0,0,1,325,794.79c-4.13,4.3-10.15,6.2-13.82,7.4l-5,1.64a28.54,28.54,0,0,1-6.92,1c-4.37.53-11.21-1.39-14.4-4.11a6.15,6.15,0,0,1-1.61-1.88c-4.8-4.2-4.75-8-4.68-12a23.44,23.44,0,0,0-1.23-9.06,7.54,7.54,0,0,1-.59-3.29,8.5,8.5,0,0,0-.08-1c-.24-.72-.58-1.52-.9-2.24s-.58-1.36-.76-1.89a39.36,39.36,0,0,1-.6-7.22c0-1.45-.07-2.87-.17-4a10.14,10.14,0,0,0-.41-1.43,8.54,8.54,0,0,1-.5-2.08c0-.32,0-1.71.08-3.66a154.76,154.76,0,0,0,0-15.83,9.57,9.57,0,0,0-.95-2.87,5.09,5.09,0,0,1-.15-5.29,7.48,7.48,0,0,0,.36-1.07,8.23,8.23,0,0,0-.3-1.22,10.93,10.93,0,0,1-.44-1.88l-.07-.55.22-.52a17.33,17.33,0,0,0,1.33-3.68,9.39,9.39,0,0,0-.14-1.49,7.65,7.65,0,0,1-.07-2.57l.11-1a20.6,20.6,0,0,0,.12-6.28l-.34-.53a2.47,2.47,0,0,1-.25-2.85,9.94,9.94,0,0,0,.45-2.48c.06-.57.13-1.18.27-1.93s.27-2.25.4-3.59a35.24,35.24,0,0,1,.58-4.5,23.46,23.46,0,0,0,.4-5.06,36.14,36.14,0,0,1,.46-6.37,21.93,21.93,0,0,1,1.92-3.56,26.15,26.15,0,0,0,1.44-2.46h0a5,5,0,0,1-.33-1.19,8.21,8.21,0,0,1-.25-2.48,6.75,6.75,0,0,1,1.66-3.08l.36-.44a22.72,22.72,0,0,0,.31-3.29,18.15,18.15,0,0,1,.66-4.65,7.25,7.25,0,0,1,1.37-2.51,6.34,6.34,0,0,0,.38-.54c1.89-6.1,3.53-15.33,5.1-24.26,1.37-7.7,2.77-15.67,4.38-21.61a10.14,10.14,0,0,0,.2-2.4,10.11,10.11,0,0,1,.23-2.64,9.41,9.41,0,0,1,1.51-2.8,8,8,0,0,0,.72-1.17,66.94,66.94,0,0,0,1.7-11.7,58.76,58.76,0,0,1,1.76-11.57,16,16,0,0,1,1.46-2.63,12.11,12.11,0,0,0,.79-1.33c0-.12.11-.55.23-1.09.87-4,2.69-12.42,8.64-14.41,3.28-1.09,6.45.38,9.51,1.8a22.2,22.2,0,0,0,5.71,2.06l2.83.43-1.37,2.53a8.48,8.48,0,0,1,1.17,1.91,6.11,6.11,0,0,0,.42.78,9.45,9.45,0,0,1,3.14,2.55c1.91,2.38,2.19,8.15,2.19,8.2.05.46,0,2.86-.13,9.06-.11,4.71-.22,10.07-.21,12.94v.54l-.55.92,1.23,27.89a14.07,14.07,0,0,0,5.69,1.46c2.69-.91,3.5-1.91,5.12-3.88.53-.65,1.12-1.38,1.87-2.21.35-.36.74-.72,1.15-1.09a10.35,10.35,0,0,0,1.59-1.69c2-4.64,1.54-8.44,1.12-12.11a29.15,29.15,0,0,1-.27-5.72l.18-1a24.17,24.17,0,0,0,.34-2.41,24.69,24.69,0,0,1-1.5-6.26l-.1-2.46a41.63,41.63,0,0,1,.17-8.12,17.36,17.36,0,0,1,1.57-4.45c.29-.63.56-1.26.79-1.84a4.75,4.75,0,0,0-.17-.49,4.4,4.4,0,0,1-.38-1.87,44,44,0,0,0,.69-5.67,97.51,97.51,0,0,0-1.53-9.85.08.08,0,0,1,0,0,4.53,4.53,0,0,1-1.41-1.89,14.57,14.57,0,0,1-.28-5.54,13.39,13.39,0,0,0,0-3.09c-.66-1.94-2.22-3.24-3.58-2.78a7.09,7.09,0,0,1-2,1.14c-2,.67-4.43-.77-5.22-1.76-2.91-2.58-5.86-4.14-8.52-4.4a4.76,4.76,0,0,1-2.6-1.56,7.86,7.86,0,0,0-2.67-.7,13.64,13.64,0,0,1-3.15-.69c-3-1-8.32-1.44-11.25-.46a46.27,46.27,0,0,0-6.25,3.35,11,11,0,0,0-1.63,1.91,10.68,10.68,0,0,1-1.87,2.11C292.2,552,289,559.49,285.78,570.77a43.17,43.17,0,0,1-1.68,4.6c-.43,1.06-.85,2.07-1.12,2.94a33.27,33.27,0,0,0-.67,4.61,24.9,24.9,0,0,1-.86,5.1,128.35,128.35,0,0,0-3.3,14.22c-.86,4.46-1.85,9.53-3.33,15.57a8.49,8.49,0,0,0,0,2.4,6.75,6.75,0,0,1-.18,3.31,60.79,60.79,0,0,0-1.56,9.2,62.61,62.61,0,0,1-2.18,11.65,4.52,4.52,0,0,0,.19,1.73l.27.82-.41.78c-1.31,2.42-1.86,5.71-2.39,8.88A35.71,35.71,0,0,1,266.53,665Z"/><path class="cls-15" d="M361.62,754.33a28.25,28.25,0,0,1-2.39,5.51c-3.71,6.39-10.52,17.59-19,27-1.39,1.4-2.6,4.15-4.4,5.93-5.26,4.8-13,13.24-18.5,15.81-.92.31-3.06,2.66-5,4a27.55,27.55,0,0,1-5.3,2.24,84.72,84.72,0,0,1-13.67,1.24c-2.9,0-8.66-1.84-12.2-3-.93-.42-2.9-2.57-4-3.62s-3.48-2.82-4.43-4.14a43.13,43.13,0,0,1-9.4-19.41,207.35,207.35,0,0,1-4.6-32.07l-1-16.34c0-.94.67-5.16.47-7.2-1.53-11,1.15-26,2-33.79a34.2,34.2,0,0,0,0-5.63c.19-1,1-3.37,1.31-4.89.29-2.2-.19-4.44.37-6.72.83-3.09,1.93-6,2.37-8.75,0-1.42.22-4.08.36-6,2.34-5,1.9-12.61,4.67-17.75a5.94,5.94,0,0,1-.2-3c2.3-7.36,1.85-14.26,3.81-21,.43-1.08-.41-3.61,0-5.42,3.26-13.28,4.08-21.82,6.67-30,.79-2.35.7-6.57,1.52-9.66.64-2.09,2.07-4.9,2.79-7.5,3.05-10.66,6.22-19,14.48-26.66,1-.82,2-2.75,3.41-3.95a44.6,44.6,0,0,1,6.93-3.75c3.59-1.19,9.43-.51,12.69.52,1.22.52,3.91.57,5.66,1.15.63.28,1.29,1.46,2.16,1.65,3.78.37,7.25,2.76,9.9,5.15a3.63,3.63,0,0,0,3,1.1c.95-.31,1-.82,2-1.14,2.4-.8,5.07.9,6.2,4.29.46,2.2-.6,6.06.18,8.4.28.84,1.45,1.15,1.47,2.08a95.31,95.31,0,0,1,1.59,10.28,40.51,40.51,0,0,1-.7,5.86c0,.73.95,2.06.45,2.9-.71,1.89-2,4.22-2.27,5.93-.5,3.23-.15,6.65-.05,10.11a24.09,24.09,0,0,0,1.49,6.09,23.31,23.31,0,0,1-.51,3.94c-.45,5.07,2.24,10.77-1,18.41-.45,1.1-2.15,2.37-3.12,3.39-3.09,3.4-3.56,5.19-8.09,6.7-.95.32-7.94-.89-8.1-2.94l-1.23-28.28c0-.9.2-1,.53-1.56,0-5.62.46-20.82.34-22,0-.92-.51-5.44-1.86-7.15a9.94,9.94,0,0,0-2.81-2.1c-.83-.89-1.08-2.44-2.15-3.27a2.9,2.9,0,0,1,.15-1.92c-5.31-.82-10-5.36-14.27-3.94-5.7,1.9-7,12.24-7.62,14.3-.31.8-1.75,2.71-2.18,3.78-2.28,8.26-1.11,13.94-3.51,23.43-.41,1.09-1.81,2.49-2.19,3.8s.05,3.25-.43,5c-3.43,12.67-5.86,34.27-9.56,46.07-.08.5-1.5,1.91-1.68,2.92-.89,2.86-.28,5.47-1.18,8.36-.31.57-1.56,1.71-1.74,2.7-.12,1.21.74,3,.41,4.33-.78,1.66-2.44,3.85-3.21,5.54-.76,4-.07,8.47-.89,11.57-.34,1.28-.59,5.75-.94,7.94-.38,2-.15,3-1,5.15-.18.27.51.76.87,1.83.53,2.39.11,5.12-.21,8.06-.2,1,.3,2.49.23,3.92a18.13,18.13,0,0,1-1.49,4.26c.17,1.33.85,2.53.73,3.73-.2,1-1,2.45-1,3.4s1.68,3.43,1.75,5.27c.57,6.4-.19,18.4-.09,19.54.06.93.71,2.12.91,3.46.28,3.19.09,8.18.68,10.79.35,1.06,1.17,2.67,1.67,4.18.27.82,0,3.26.64,4.23,3.48,9.65-1.79,14.18,5.58,20.42a5.72,5.72,0,0,0,1.36,1.65c2.57,2.19,8.77,4.14,13.09,3.63a27.23,27.23,0,0,0,6.27-.92l3.82-1.28c3.26-1.08,9.9-2.82,14.2-7.29A132.41,132.41,0,0,0,340,774.44a134.38,134.38,0,0,0,8.83-13.8c2-3.48,5.24-4.78,7.11-9.43.43-1.09.33-2.86,1-5.45.29-.82,2.36-1.24,2.94-2.63.12-.52-1.11-2.65-1-3.13.28-.09,2.67-2.35,3.85-2.74,1.91-.64,4.72,1.27,4.84,2.39.24,3.94-5.42,13.1-5.94,14.69"/></g><path class="cls-16" d="M203,274.64l-12.17-36.5L78,275.81,66.18,287.06,68.41,308l21.72,4.32L67.37,406.2a103.18,103.18,0,0,0,2.4,56.91L214.63,897.37a103.12,103.12,0,0,0,47.13,57.18,51.29,51.29,0,0,0,7.49,3.36h0c17.43,6.36,36.23,26,41.79,43.75l.09.3a18.88,18.88,0,0,0,24,12.27l103.13-34.4-50.8-104.4-161-482.66Z"/><line class="cls-10" x1="270.68" y1="914.39" x2="322.47" y2="897.11"/><path class="cls-11" d="M515.61,256.69l-74.56-61.44L265.59,253.78,90.13,312.3,67.37,406.2a103.18,103.18,0,0,0,2.4,56.91L214.63,897.37a103.12,103.12,0,0,0,47.13,57.18,51.29,51.29,0,0,0,7.49,3.36h0c17.43,6.36,36.23,26,41.79,43.75l.09.3a18.88,18.88,0,0,0,24,12.27l331-110.41a19.23,19.23,0,0,0,12.05-24.66l-2.2-6.22c-5-14.06-2.39-35.78,5.75-48.27h0a95.89,95.89,0,0,0,11.7-23.82,103.13,103.13,0,0,0-.74-62.94L547.86,303.64A103.07,103.07,0,0,0,515.61,256.69Z"/><path class="cls-17" d="M201.15,164.57a6.15,6.15,0,0,1,1.94,12,6,6,0,0,1-2,.32,6.16,6.16,0,0,1-1.94-12,6.26,6.26,0,0,1,2-.31m0-9.36h0a15.51,15.51,0,1,0,14.71,10.6,15.45,15.45,0,0,0-14.71-10.6Z"/><path class="cls-17" d="M142.44,65a7.57,7.57,0,0,1,2.39,14.76,7.57,7.57,0,0,1-9.58-4.79A7.57,7.57,0,0,1,140,65.34a7.44,7.44,0,0,1,2.4-.39m0-9.36h0a16.94,16.94,0,0,0,0,33.87,17.19,17.19,0,0,0,5.36-.87,16.94,16.94,0,0,0-5.36-33Z"/><path class="cls-17" d="M211.91,77.12a15.15,15.15,0,1,1-4.8.78,15.16,15.16,0,0,1,4.8-.78m0-9.36h0A24.51,24.51,0,0,0,188.66,100a24.51,24.51,0,1,0,23.25-32.27Z"/><path class="cls-17" d="M157.43,140.1a13.28,13.28,0,1,1-4.2.69,13.68,13.68,0,0,1,4.2-.69m0-9.35h0a22.7,22.7,0,0,0-7.16,1.16A22.62,22.62,0,0,0,157.42,176a22.59,22.59,0,0,0,20.23-12.51,22.61,22.61,0,0,0-20.22-32.72Z"/><rect class="cls-11" x="55.3" y="216.3" width="408.4" height="38.47" rx="2.12" transform="matrix(0.95, -0.32, 0.32, 0.95, -61.19, 94.21)"/><line class="cls-11" x1="673.63" y1="860.77" x2="302.16" y2="984.67"/><line class="cls-10" x1="363.52" y1="883.42" x2="532.18" y2="827.16"/><line class="cls-10" x1="261.34" y1="381.15" x2="107.11" y2="432.59"/><path class="cls-18" d="M592.24,330.24,579.81,293A136.8,136.8,0,0,0,537,230.69L486.43,189a52.82,52.82,0,0,0-68.22-62.19l-1.24.42A89.82,89.82,0,0,0,254.44,68.38,48.74,48.74,0,0,0,179.79,55.5a41.15,41.15,0,1,0-45.85,57.22,46.94,46.94,0,0,0,38.24,85.2,39.81,39.81,0,0,0,9.91,7.64l-1.88.63L67.29,243.86A53,53,0,0,0,33.84,310.8a55.08,55.08,0,0,0,2,5.2,33.6,33.6,0,0,0,13.83,20L34.64,398.27a136.59,136.59,0,0,0,3.18,75.5l21.52,64.52L89,627.05l93.72,281a136.68,136.68,0,0,0,62.56,75.87,84.87,84.87,0,0,0,12.48,5.66c6.54,2.38,16,11.67,19.9,19.26l.08.14A19,19,0,0,1,279,1012a52.57,52.57,0,0,0,66.82,34.14l103.13-34.4,227.88-76A52.92,52.92,0,0,0,710,867.88l-2.19-6.16,0-.09a8.78,8.78,0,0,1-.21-.88,24,24,0,0,1-.33-2.57s0-.06,0-.1c-.26-5,.92-12.16,2.8-15.05,7.32-11.27,12.45-21.83,15.66-32.28a136.09,136.09,0,0,0-1-83.5Z"/></svg>